<svg width="409" height="405" viewBox="0 0 409 405" fill="none" xmlns="http://www.w3.org/2000/svg">
<path d="M114.639 221.982C114.669 221.964 114.61 222.001 114.639 221.982Z" fill="#A9C0F8"/>
<path d="M8.64733 221.94C8.66378 221.968 8.63088 221.912 8.64733 221.94Z" fill="#7292DB"/>
<path d="M254.637 215.009C254.665 214.992 254.609 215.025 254.637 215.009Z" fill="#7292DB"/>
<path d="M298.097 215C298.113 215.027 298.08 214.972 298.097 215Z" fill="#7292DB"/>
<path fill-rule="evenodd" clip-rule="evenodd" d="M182.089 3.46339C231.922 8.4957 258.675 44.3877 296.875 75.4459C339.699 110.264 404.192 133.994 408.6 187.627C413.221 243.836 377.1 294.653 335.414 334.468C293.793 374.223 240.863 404.931 182.089 403.978C124.109 403.039 71.9863 371.432 33.8675 329.58C-1.6804 290.551 17.7105 244.066 15.3415 192.325C12.8275 137.417 -20.7996 71.038 20.2723 32.6531C61.1093 -5.51234 125.345 -2.2669 182.089 3.46339Z" fill="#375A7F"/>
<circle cx="168" cy="123" r="30" fill="#080808"/>
<g clip-path="url(#clip0_125_102)">
<path d="M250.696 205H248.95L250.5 207.404L247.222 205H245.474L247.025 208.15L243.747 205H242L243.525 209.065L242 217H243.747L247.025 208.493L245.474 217H247.221L250.5 207.747L248.95 217H250.696L254 206.836L250.696 205Z" fill="#FFD233"/>
</g>
<path d="M358.664 278.234C352.284 278.23 346.132 278.269 339.98 278.206C337.754 278.183 335.53 277.916 333.017 277.602C331.942 275.87 331.154 274.296 330.367 272.721C328.848 269.682 332.176 270.341 333.073 269.147C333.257 268.903 333.27 268.531 333.567 268.194C335.801 267.891 337.83 267.614 339.924 267.27C339.99 267.203 340.149 267.102 340.149 267.102C341.754 267.149 343.358 267.231 344.962 267.237C349.916 267.254 354.87 267.259 359.824 267.227C360.713 267.221 361.601 267.018 362.679 266.819C363.268 266.957 363.652 267.34 364.068 267.379C365.372 267.502 366.73 267.303 367.992 267.575C371.732 268.382 373.094 270.07 372.869 273.286C372.69 275.848 370.037 278.105 366.891 278.213C364.228 278.305 361.559 278.235 358.664 278.234Z" fill="#EBF1FD"/>
<path d="M352.187 302.785C351.937 302.882 351.5 302.949 350.967 302.903C351.247 302.778 351.624 302.766 352.187 302.785Z" fill="#B8CBFB"/>
<path d="M203.827 102.796C209.39 109.597 207.129 119.172 199.199 124.497V123.991V123.983V123.975V123.968V123.96V123.952V123.944V123.936V123.929V123.921V123.913V123.905V123.898V123.89V123.882V123.874V123.867V123.859V123.851V123.843V123.836V123.828V123.82V123.812V123.805V123.797V123.789V123.781V123.774V123.766V123.758V123.751V123.743V123.735V123.728V123.72V123.712V123.704V123.697V123.689V123.681V123.674V123.666V123.658V123.651V123.643V123.635V123.628V123.62V123.612V123.605V123.597V123.589V123.582V123.574V123.567V123.559V123.551V123.544V123.536V123.528V123.521V123.513V123.505V123.498V123.49V123.483V123.475V123.467V123.46V123.452V123.445V123.437V123.429V123.422V123.414V123.407V123.399V123.392V123.384V123.376V123.369V123.361V123.354V123.346V123.339V123.331V123.323V123.316V123.308V123.301V123.293V123.286V123.278V123.271V123.263V123.256V123.248V123.241V123.233V123.225V123.218V123.21V123.203V123.195V123.188V123.18V123.173V123.165V123.158V123.15V123.143V123.135V123.128V123.12V123.113V123.105V123.098V123.09V123.083V123.076V123.068V123.061V123.053V123.046V123.038V123.031V123.023V123.016V123.008V123.001V122.993V122.986V122.979V122.971V122.964V122.956V122.949V122.941V122.934V122.926V122.919V122.912V122.904V122.897V122.889V122.882V122.875V122.867V122.86V122.852V122.845V122.838V122.83V122.823V122.815V122.808V122.801V122.793V122.786V122.778V122.771V122.764V122.756V122.749V122.741V122.734V122.727V122.719V122.712V122.705V122.697V122.69V122.683V122.675V122.668V122.66V122.653V122.646V122.638V122.631V122.624V122.616V122.609V122.602V122.594V122.587V122.58V122.572V122.565V122.558V122.55V122.543V122.536V122.528V122.521V122.514V122.507V122.499V122.492V122.485V122.477V122.47V122.463V122.455V122.448V122.441V122.434V122.426V122.419V122.412V122.404V122.397V122.39V122.383V122.375V122.368V122.361V122.353V122.346V122.339V122.332V122.324V122.317V122.31V122.303V122.295V122.288V122.281V122.274V122.266V122.259V122.252V122.245V122.237V122.23V122.223V122.216V122.208V122.201V122.194V122.187V122.179V122.172V122.165V122.158V122.15V122.143V122.136V122.129V122.122V122.114V122.107V122.1V122.093V122.085V122.078V122.071V122.064V122.057V122.049V122.042V122.035V122.028V122.021V122.013V122.006V121.999V121.992V121.985V121.977V121.97V121.963V121.956V121.949V121.942V121.934V121.927V121.92V121.913V121.906V121.898V121.891V121.884V121.877V121.87V121.863V121.855V121.848V121.841V121.834V121.827V121.82V121.812V121.805V121.798V121.791V121.784V121.777V121.77V121.762V121.755V121.748V121.741V121.734V121.727V121.72V121.712V121.705V121.698V121.691V121.684V121.677V121.67V121.662V121.655V121.648V121.641V121.634V121.627V121.62V121.613V121.605V121.598V121.591V121.584V121.577V121.57V121.563V121.556V121.549V121.541V121.534V121.527V121.52V121.513V121.506V121.499V121.492V121.485V121.477V121.47V121.463V121.456V121.449V121.442V121.435V121.428V121.421V121.414V121.406V121.399V121.392V121.385V121.378V121.371V121.364V121.357V121.35V121.343V121.336V121.328V121.321V121.314V121.307V121.3V121.293V121.286V121.279V121.272V121.265V121.258V121.251V121.244V121.237V121.229V121.222V121.215V121.208V121.201V121.194V121.187V121.18V121.173V121.166V121.159V121.152V121.145V121.138V121.131V121.123V121.116V121.109V121.102V121.095V121.088V121.081V121.074V121.067V121.06V121.053V121.046V121.039V121.032V121.025V121.018V121.011V121.004V120.997V120.989V120.982V120.975V120.968V120.961V120.954V120.947V120.94V120.933V120.926V120.919V120.912V120.905V120.898V120.891V120.884V120.877V120.87V120.863V120.856V120.849V120.842V120.835V120.828V120.821V120.814V120.806V120.799V120.792V120.785V120.778V120.771V120.764V120.757V120.75V120.743V120.736V120.729V120.722V120.715V120.708V120.701V120.694V120.687V120.68V120.673V120.666V120.659V120.652V120.645V120.638V120.631V120.624V120.617V120.61V120.603V120.596V120.589V120.582V120.575V120.568V120.561V120.554V120.547V120.54V120.533V120.526V120.518V120.511V120.504V120.497V120.49V120.483V120.476V120.469V120.462V120.455V120.448V120.441V120.434V120.427V120.42V120.413V120.406V120.399V120.392V120.385V120.378V120.371V120.364V120.357V120.35V120.343V120.336V120.329V120.322V120.315V120.308V120.301V120.294V120.287V120.28V120.273V120.266V119.766H198.699C198.159 119.766 197.644 119.776 197.147 119.785C195.984 119.808 194.918 119.828 193.85 119.716C193.659 119.696 193.437 119.585 193.139 119.373C193.031 119.296 192.925 119.216 192.812 119.13C192.784 119.108 192.755 119.086 192.726 119.064C192.76 119.031 192.793 118.999 192.825 118.968C192.931 118.865 193.029 118.769 193.13 118.677C193.418 118.417 193.609 118.308 193.75 118.292C194.917 118.164 196.085 118.187 197.337 118.211C197.857 118.221 198.391 118.232 198.946 118.232H199.479L199.445 117.7C199.001 110.678 194.318 107.288 189.351 104.118L188.823 103.781L188.611 104.371C186.975 108.936 184.423 111.875 181.21 113.677C177.985 115.486 174.047 116.173 169.604 116.145C169.343 116.143 169.097 116.235 168.893 116.346C168.684 116.459 168.485 116.612 168.306 116.777C167.95 117.104 167.627 117.523 167.433 117.902C165.991 120.719 164.61 123.569 163.15 126.583C162.804 127.297 162.453 128.02 162.097 128.755C162.018 128.558 161.97 128.423 161.939 128.29L161.487 128.399L161.939 128.29C161.677 127.205 161.184 126.333 160.42 125.786C159.65 125.234 158.678 125.063 157.565 125.239C156.475 125.412 155.622 125.854 155.049 126.592C154.482 127.322 154.238 128.279 154.232 129.388C154.217 132.039 155.602 133.744 157.391 135.227C157.549 135.358 157.684 135.575 157.805 135.897C157.912 136.18 157.991 136.495 158.078 136.839C158.08 136.845 158.081 136.85 158.083 136.856C157.252 139.912 156.52 142.873 155.765 145.928C155.654 146.376 155.543 146.826 155.43 147.279C155.207 147.841 154.988 148.377 154.776 148.898C154.505 149.563 154.244 150.202 153.998 150.835C152.879 153.71 151.453 156.194 149.497 158.089C147.549 159.975 145.056 161.297 141.761 161.822C140.784 161.943 139.998 162.072 139.231 162.198L139.116 162.217C138.963 162.242 138.81 162.267 138.657 162.292C134.202 163.021 129.628 163.769 125.459 166.405L125.441 166.416L125.423 166.429C122.052 168.996 119.562 172.157 118.223 176.012C116.595 180.697 115.028 185.462 113.953 190.323C113.15 193.96 112.46 197.619 111.778 201.274L111.667 201.867C111.045 205.2 110.423 208.528 109.72 211.841C107.945 211.924 106.239 212.017 104.538 212.11C103.827 212.148 103.116 212.187 102.402 212.225L102.403 212.224L101.9 211.368L101.889 211.373C101.57 211.513 101.244 211.657 100.91 211.818C100.906 211.8 100.901 211.782 100.897 211.764C100.704 211.011 100.509 210.249 100.292 209.499C100.218 209.241 100.143 208.982 100.068 208.724C99.3876 206.375 98.7123 204.044 98.1777 201.683C99.5007 201.501 100.664 201.353 101.66 201.226L102.14 201.165L102.095 200.683C102.02 199.894 101.918 199.124 101.82 198.387C101.767 197.989 101.716 197.601 101.67 197.226C101.539 196.136 101.456 195.112 101.515 194.107C101.733 190.443 101.262 186.901 100.585 183.423C100.278 181.844 99.9265 180.273 99.5773 178.71C99.542 178.552 99.5067 178.394 99.4715 178.236C99.09 176.526 98.7157 174.823 98.4035 173.113C98.1756 165.761 99.3004 158.789 103.215 152.45C106.468 147.183 111.168 143.389 116.085 139.678C118.864 137.581 121.642 135.487 124.435 133.413C132.105 127.718 136.655 120.279 137.938 110.661C138.035 109.932 138.139 109.202 138.243 108.473C138.751 104.896 139.26 101.307 139.054 97.5584C138.701 91.1347 139.367 84.771 141.792 78.7183C145.9 68.4654 156.64 65.8786 164.895 68.3919C168.083 69.3624 170.116 71.0065 171.107 73.1209C172.1 75.2421 172.091 77.9345 170.985 81.091L170.787 81.6574L171.38 81.7502C185.276 83.9247 195.3 92.3708 203.827 102.796ZM194.93 125.439C194.763 126.112 194.587 126.782 194.409 127.455C194.375 127.431 194.34 127.407 194.305 127.383C193.795 127.028 193.313 126.692 192.865 126.293L192.532 126.667L192.865 126.293C192.679 126.128 192.513 125.921 192.336 125.677C192.288 125.61 192.237 125.537 192.184 125.462C192.138 125.398 192.091 125.331 192.043 125.263C193.015 124.7 193.967 124.269 194.92 124.06V124.615C194.92 124.865 194.926 125.048 194.93 125.179C194.931 125.213 194.932 125.244 194.932 125.272C194.936 125.417 194.931 125.435 194.93 125.439ZM195.514 124.124L195.041 124.034C196.172 123.808 197.308 123.896 198.489 124.444L198.847 124.611C197.643 124.528 196.623 124.335 195.514 124.124ZM159.496 83.2182L160.168 83.0032L159.743 82.4405C159.235 81.7693 158.788 81.233 158.37 80.8947C157.948 80.5532 157.448 80.3293 156.899 80.5275C156.416 80.7019 156.042 81.163 155.707 81.7198C155.357 82.2995 154.982 83.1014 154.544 84.1184L154.07 85.2187L155.185 84.7818L155.19 84.7799C156.066 84.4369 156.8 84.1496 157.876 83.7367L159.496 83.2182Z" fill="white" stroke="black"/>
<path d="M159.003 137.187C158.671 136.548 158.49 135.726 157.978 135.302C156.238 133.86 154.986 132.283 155 129.851C155.012 127.766 155.917 126.509 157.911 126.193C159.948 125.871 161.233 126.849 161.721 128.868C161.811 129.243 161.993 129.595 162.322 130.446C164.385 126.213 166.21 122.373 168.146 118.59C168.475 117.947 169.286 117.101 169.869 117.105C178.849 117.163 186.007 114.33 189.35 105C194.319 108.17 198.788 111.441 199.214 118.192C197.374 118.192 195.652 118.07 193.964 118.255C193.333 118.325 192.782 119.112 192.194 119.571C192.816 119.956 193.411 120.605 194.066 120.674C195.624 120.837 197.211 120.726 198.968 120.726C198.968 121.923 198.968 123.12 198.968 124.451C196.4 123.259 194.047 124.081 191.542 125.521C189.083 129.404 190.267 132.879 191.953 136.334C189.944 138.171 189.814 138.206 185.096 138.061C184.843 137.971 184.657 137.981 184.472 137.991C184.681 138.072 184.891 138.153 185.207 138.401C187.313 138.727 189.369 139.243 191.298 138.945C193.216 138.647 194.114 136.211 193.267 134.984C191.301 132.139 190.49 129.063 191.661 125.662C192.036 126.156 192.346 126.722 192.8 127.127C193.473 127.725 194.247 128.208 194.978 128.741C195.215 127.834 195.458 126.929 195.683 126.02C195.722 125.864 195.689 125.69 195.689 125.076C196.895 125.305 198.029 125.52 199.359 125.759C199.581 126.425 199.608 127.067 199.615 127.902C198.423 132.016 197.251 135.937 195.924 140.175C194.177 143.725 192.699 147.021 190.951 150.167C189.873 152.107 188.046 153.583 185.717 153.243C182.3 152.744 178.946 151.812 175.454 150.946C167.753 148.457 163.37 142.731 160.305 135.682C159.625 136.469 159.314 136.828 159.003 137.187ZM174.359 126.469C175.191 128.606 176.78 129.609 179.329 129.667C179.422 129.695 179.515 129.723 179.718 129.926C179.873 129.857 180.027 129.788 180.477 129.511C180.985 128.369 181.492 127.227 181.996 126.093C182.563 126.04 183.337 125.966 184.11 125.892C180.207 124.1 176.898 124.395 174.359 126.469ZM182.76 118.58C179.164 118.141 175.735 118.374 172.213 121.196C176.127 121.196 179.344 121.25 182.556 121.149C183.167 121.129 183.758 120.497 184.358 120.148C183.937 119.654 183.516 119.161 182.76 118.58ZM182.564 141.845C183.691 145.329 188.513 145.341 190.563 143.656C190.84 143.429 191.027 142.722 190.877 142.441C190.697 142.106 190.114 141.823 189.695 141.807C187.431 141.724 185.163 141.731 182.564 141.845Z" fill="white"/>
<path d="M169.431 266.196C169.393 265.305 169.39 264.522 169.388 263.753C169.935 263.737 170.446 263.715 170.937 263.693C171.776 263.657 172.554 263.623 173.347 263.624L174.174 263.625H174.18C187.868 263.636 201.554 263.648 215.24 263.709C216.026 263.712 216.872 263.68 217.532 263.287C218.238 262.867 218.623 262.114 218.702 260.973C218.868 260.439 219.032 259.917 219.194 259.403C219.681 257.853 220.145 256.377 220.549 254.889C221.215 252.434 221.85 249.968 222.485 247.505C222.749 246.481 223.012 245.456 223.278 244.434C223.849 242.696 224.425 240.958 225.001 239.22C226.292 235.324 227.585 231.424 228.819 227.509C230.037 223.647 231.223 219.785 232.409 215.925C233.897 211.084 235.384 206.246 236.928 201.415C237.5 199.628 238.278 198.474 239.337 197.76C240.402 197.042 241.824 196.72 243.783 196.746C250.559 196.836 257.335 196.943 264.236 197.053C268.065 197.114 271.933 197.176 275.86 197.235C281.667 197.397 287.009 197.56 292.519 197.727L292.519 197.727L292.531 197.727C292.782 197.729 292.967 197.728 293.186 197.728C293.31 197.727 293.446 197.727 293.61 197.727C293.61 197.727 293.61 197.727 293.61 197.727L294.09 197.726C298.492 197.725 302.687 197.723 307.059 197.792C307.452 197.832 307.841 197.876 308.227 197.919C309.672 198.081 311.069 198.237 312.451 198.187C313.538 198.147 314.388 198.298 315.031 198.7C315.639 199.08 316.126 199.727 316.425 200.829C316.328 201.337 316.245 201.823 316.165 202.29C315.97 203.435 315.793 204.472 315.475 205.482C312.744 214.176 309.962 222.854 307.163 231.527C306 235.132 304.823 238.736 303.645 242.341C302.018 247.321 300.391 252.303 298.799 257.291C298.636 257.802 298.484 258.31 298.333 258.814C297.495 261.607 296.703 264.245 294.423 266.278C293.793 266.386 293.174 266.513 292.577 266.635C292.241 266.704 291.912 266.771 291.591 266.833C290.644 267.017 289.743 267.159 288.848 267.187C285.636 267.284 282.426 267.266 279.119 267.248C277.809 267.241 276.483 267.233 275.137 267.233H275.137C272.011 267.234 268.922 267.235 265.84 267.237C261.12 267.239 256.419 267.242 251.631 267.242C249.09 267.243 246.576 267.244 244.07 267.246C239.104 267.248 234.172 267.251 229.137 267.249C224.829 267.247 220.568 267.247 216.307 267.247C212.098 267.247 207.888 267.247 203.633 267.244H203.632C200.177 267.246 196.764 267.249 193.358 267.252C188.633 267.257 183.922 267.261 179.131 267.261C178.36 267.255 177.624 267.263 176.911 267.271C175.455 267.288 174.095 267.303 172.729 267.197L172.69 267.695L172.729 267.197C171.671 267.114 170.625 266.698 169.431 266.196Z" stroke="white"/>
<path d="M186.042 244.463C188.657 237.789 191.234 231.284 193.984 224.732C195.922 223.769 197.721 222.847 199.505 221.929C199.789 222.956 200.086 223.974 200.382 224.988C201.163 227.665 201.936 230.313 202.436 233.028L202.927 232.937L202.436 233.028C202.999 236.083 203.963 238.689 205.704 240.555C207.462 242.437 209.955 243.506 213.444 243.593C214.917 243.63 216.394 243.838 217.912 244.091C218.321 244.159 218.733 244.231 219.15 244.303C220.095 244.467 221.06 244.635 222.037 244.772C221.314 248.025 220.478 251.333 219.584 254.627C219.073 256.508 218.467 258.363 217.697 260.33C216.377 260.473 215.241 260.532 214.1 260.565C210.741 260.663 207.383 260.759 204.024 260.855C193.551 261.154 183.076 261.453 172.603 261.8C171.91 261.823 171.238 261.995 170.607 262.19C170.359 262.267 170.124 262.344 169.895 262.42C169.546 262.536 169.21 262.647 168.862 262.743C168.8 262.74 168.727 262.742 168.637 262.749L168.627 262.749L168.617 262.751C167.504 262.881 166.394 263.011 165.285 263.142C156.197 264.208 147.232 265.26 138.091 266.279C136.472 266.361 134.909 266.456 133.349 266.551C132.086 266.628 130.824 266.704 129.536 266.774C129.312 266.769 129.095 266.765 128.882 266.761C127.873 266.743 126.97 266.727 125.955 266.615L125.948 266.614L125.94 266.614C122.046 266.307 119.651 265.698 117.95 264.308C116.248 262.917 115.155 260.676 114.061 256.866C113.265 254.093 113.004 251.09 112.916 248.139C112.758 242.874 112.92 237.596 113.094 232.159C113.278 230.882 113.426 229.643 113.57 228.423C113.578 228.354 113.586 228.286 113.594 228.218C113.725 227.11 113.853 226.018 114.005 224.919C114.055 224.862 114.097 224.809 114.133 224.764C114.138 224.757 114.144 224.751 114.149 224.744C114.208 224.67 114.258 224.61 114.329 224.542C114.498 224.406 114.632 224.29 114.754 224.185C114.94 224.026 115.096 223.891 115.301 223.75C115.311 223.748 115.321 223.747 115.331 223.746C115.432 223.733 115.492 223.725 115.554 223.724C115.595 223.724 115.627 223.727 115.664 223.739C115.726 223.79 115.789 223.842 115.854 223.896C116.039 224.05 116.232 224.21 116.413 224.34C116.685 224.536 117.001 224.721 117.369 224.787L117.369 224.787C121.406 225.513 125.449 226.208 129.539 226.912C130.975 227.159 132.416 227.407 133.865 227.658C133.698 229.072 133.52 230.471 133.343 231.86C132.968 234.808 132.599 237.708 132.356 240.609C132.263 241.72 132.232 242.632 132.319 243.376C132.407 244.127 132.619 244.749 133.046 245.242C133.471 245.733 134.06 246.04 134.791 246.258C135.518 246.475 136.43 246.617 137.543 246.746L137.6 246.249L137.543 246.746C137.682 246.762 137.816 246.776 137.949 246.789C138.4 246.835 138.836 246.879 139.369 247.011L139.399 247.018L139.43 247.022C140.109 247.103 140.787 247.183 141.464 247.264C148.982 248.159 156.387 249.041 163.814 249.64C168.057 249.982 172.323 250.154 176.637 250.328C178.963 250.422 181.303 250.516 183.661 250.638L183.661 250.638L183.671 250.638C185.183 250.686 186.483 250.686 188.135 250.686H188.139H188.935L188.589 249.969C187.632 247.986 186.817 246.297 186.042 244.463Z" fill="white"/>
<path d="M186.042 244.463C188.657 237.789 191.234 231.284 193.984 224.732C195.922 223.769 197.721 222.847 199.505 221.929C199.789 222.956 200.086 223.974 200.382 224.988C201.163 227.665 201.936 230.313 202.436 233.028L202.927 232.937L202.436 233.028C202.999 236.083 203.963 238.689 205.704 240.555C207.462 242.437 209.955 243.506 213.444 243.593C214.917 243.63 216.394 243.838 217.912 244.091C218.321 244.159 218.733 244.231 219.15 244.303C220.095 244.467 221.06 244.635 222.037 244.772C221.314 248.025 220.478 251.333 219.584 254.627C219.073 256.508 218.467 258.363 217.697 260.33C216.377 260.473 215.241 260.532 214.1 260.565C210.741 260.663 207.383 260.759 204.024 260.855C193.551 261.154 183.076 261.453 172.603 261.8C171.91 261.823 171.238 261.995 170.607 262.19C170.359 262.267 170.124 262.344 169.895 262.42C169.546 262.536 169.21 262.647 168.862 262.743C168.8 262.74 168.727 262.742 168.637 262.749L168.627 262.749L168.617 262.751C167.504 262.881 166.394 263.011 165.285 263.142C156.197 264.208 147.232 265.26 138.091 266.279C136.472 266.361 134.909 266.456 133.349 266.551C132.086 266.628 130.824 266.704 129.536 266.774C129.312 266.769 129.095 266.765 128.882 266.761C127.873 266.743 126.97 266.727 125.955 266.615L125.948 266.614L125.94 266.614C122.046 266.307 119.651 265.698 117.95 264.308C116.248 262.917 115.155 260.676 114.061 256.866C113.265 254.093 113.004 251.09 112.916 248.139C112.758 242.874 112.92 237.596 113.094 232.159C113.278 230.882 113.426 229.643 113.57 228.423C113.578 228.354 113.586 228.286 113.594 228.218C113.725 227.11 113.853 226.018 114.005 224.919C114.055 224.862 114.097 224.809 114.133 224.764C114.138 224.757 114.144 224.751 114.149 224.744C114.208 224.67 114.258 224.61 114.329 224.542C114.498 224.406 114.632 224.29 114.754 224.185C114.94 224.026 115.096 223.891 115.301 223.75C115.311 223.748 115.321 223.747 115.331 223.746C115.432 223.733 115.492 223.725 115.554 223.724C115.595 223.724 115.627 223.727 115.664 223.739C115.726 223.79 115.789 223.842 115.854 223.896C116.039 224.05 116.232 224.21 116.413 224.34C116.685 224.536 117.001 224.721 117.369 224.787L117.369 224.787C121.406 225.513 125.449 226.208 129.539 226.912C130.975 227.159 132.416 227.407 133.865 227.658C133.698 229.072 133.52 230.471 133.343 231.86C132.968 234.808 132.599 237.708 132.356 240.609C132.263 241.72 132.232 242.632 132.319 243.376C132.407 244.127 132.619 244.749 133.046 245.242C133.471 245.733 134.06 246.04 134.791 246.258C135.518 246.475 136.43 246.617 137.543 246.746L137.6 246.249L137.543 246.746C137.682 246.762 137.816 246.776 137.949 246.789C138.4 246.835 138.836 246.879 139.369 247.011L139.399 247.018L139.43 247.022C140.109 247.103 140.787 247.183 141.464 247.264C148.982 248.159 156.387 249.041 163.814 249.64C168.057 249.982 172.323 250.154 176.637 250.328C178.963 250.422 181.303 250.516 183.661 250.638L183.661 250.638L183.671 250.638C185.183 250.686 186.483 250.686 188.135 250.686H188.139H188.935L188.589 249.969C187.632 247.986 186.817 246.297 186.042 244.463Z" stroke="black"/>
<path d="M186.042 244.463C188.657 237.789 191.234 231.284 193.984 224.732C195.922 223.769 197.721 222.847 199.505 221.929C199.789 222.956 200.086 223.974 200.382 224.988C201.163 227.665 201.936 230.313 202.436 233.028L202.927 232.937L202.436 233.028C202.999 236.083 203.963 238.689 205.704 240.555C207.462 242.437 209.955 243.506 213.444 243.593C214.917 243.63 216.394 243.838 217.912 244.091C218.321 244.159 218.733 244.231 219.15 244.303C220.095 244.467 221.06 244.635 222.037 244.772C221.314 248.025 220.478 251.333 219.584 254.627C219.073 256.508 218.467 258.363 217.697 260.33C216.377 260.473 215.241 260.532 214.1 260.565C210.741 260.663 207.383 260.759 204.024 260.855C193.551 261.154 183.076 261.453 172.603 261.8C171.91 261.823 171.238 261.995 170.607 262.19C170.359 262.267 170.124 262.344 169.895 262.42C169.546 262.536 169.21 262.647 168.862 262.743C168.8 262.74 168.727 262.742 168.637 262.749L168.627 262.749L168.617 262.751C167.504 262.881 166.394 263.011 165.285 263.142C156.197 264.208 147.232 265.26 138.091 266.279C136.472 266.361 134.909 266.456 133.349 266.551C132.086 266.628 130.824 266.704 129.536 266.774C129.312 266.769 129.095 266.765 128.882 266.761C127.873 266.743 126.97 266.727 125.955 266.615L125.948 266.614L125.94 266.614C122.046 266.307 119.651 265.698 117.95 264.308C116.248 262.917 115.155 260.676 114.061 256.866C113.265 254.093 113.004 251.09 112.916 248.139C112.758 242.874 112.92 237.596 113.094 232.159C113.278 230.882 113.426 229.643 113.57 228.423C113.578 228.354 113.586 228.286 113.594 228.218C113.725 227.11 113.853 226.018 114.005 224.919C114.055 224.862 114.097 224.809 114.133 224.764C114.138 224.757 114.144 224.751 114.149 224.744C114.208 224.67 114.258 224.61 114.329 224.542C114.498 224.406 114.632 224.29 114.754 224.185C114.94 224.026 115.096 223.891 115.301 223.75C115.311 223.748 115.321 223.747 115.331 223.746C115.432 223.733 115.492 223.725 115.554 223.724C115.595 223.724 115.627 223.727 115.664 223.739C115.726 223.79 115.789 223.842 115.854 223.896C116.039 224.05 116.232 224.21 116.413 224.34C116.685 224.536 117.001 224.721 117.369 224.787L117.369 224.787C121.406 225.513 125.449 226.208 129.539 226.912C130.975 227.159 132.416 227.407 133.865 227.658C133.698 229.072 133.52 230.471 133.343 231.86C132.968 234.808 132.599 237.708 132.356 240.609C132.263 241.72 132.232 242.632 132.319 243.376C132.407 244.127 132.619 244.749 133.046 245.242C133.471 245.733 134.06 246.04 134.791 246.258C135.518 246.475 136.43 246.617 137.543 246.746L137.6 246.249L137.543 246.746C137.682 246.762 137.816 246.776 137.949 246.789C138.4 246.835 138.836 246.879 139.369 247.011L139.399 247.018L139.43 247.022C140.109 247.103 140.787 247.183 141.464 247.264C148.982 248.159 156.387 249.041 163.814 249.64C168.057 249.982 172.323 250.154 176.637 250.328C178.963 250.422 181.303 250.516 183.661 250.638L183.661 250.638L183.671 250.638C185.183 250.686 186.483 250.686 188.135 250.686H188.139H188.935L188.589 249.969C187.632 247.986 186.817 246.297 186.042 244.463Z" stroke="black" stroke-opacity="0.2"/>
<path d="M202.04 214.331L202.048 214.347L202.057 214.363C202.515 215.163 202.656 215.8 202.629 216.326C202.602 216.853 202.403 217.325 202.084 217.793C201.759 218.269 201.33 218.716 200.858 219.204L200.843 219.22C200.413 219.665 199.95 220.145 199.568 220.676C197.743 221.701 195.988 222.611 194.154 223.404C194.179 222.665 194.244 221.929 194.309 221.186C194.345 220.78 194.381 220.372 194.41 219.961C194.511 218.568 194.536 217.159 194.178 215.831C193.061 211.685 191.183 207.719 189.353 203.869C187.619 200.22 185.786 196.597 183.957 192.981C182.568 190.236 181.181 187.494 179.841 184.748L179.402 184.962L179.841 184.748C178.669 182.347 177.69 179.85 176.664 177.233C176.567 176.987 176.47 176.739 176.373 176.491C176.38 176.429 176.387 176.367 176.394 176.306C176.595 174.597 176.779 173.022 177.063 171.475C178.818 172.549 180.451 173.613 182.089 174.682C185.124 178.288 187.293 182.359 189.221 186.594C189.994 188.292 190.733 190.03 191.475 191.774C192.58 194.37 193.691 196.981 194.928 199.497C196.454 202.601 197.938 205.723 199.445 208.892C200.299 210.688 201.16 212.499 202.04 214.331Z" fill="white" stroke="black"/>
<path d="M240.603 101.539C240.545 101.763 240.404 101.9 240.254 102.027C240.25 102.03 240.148 101.917 240.092 101.858C240.234 101.722 240.376 101.586 240.603 101.539Z" fill="#F0F4FD"/>
<path d="M337.132 220.732C335.795 220.855 334.234 220.948 332.531 220.903C333.896 220.743 335.402 220.723 337.132 220.732Z" fill="#4C73C1"/>
<path d="M319.488 178.748C319.403 178.671 319.445 178.537 319.61 178.349C319.721 178.433 319.682 178.566 319.488 178.748Z" fill="#85A4E8"/>
<path d="M308.481 278.655C307.784 278.624 307.226 278.431 306.348 278.058C305.624 277.829 305.215 277.717 304.815 277.739C302.511 277.867 300.716 277.543 301.678 274.503C301.743 274.298 301.642 274.026 301.576 273.798C300.567 270.335 301.594 268.804 305.213 268.202C305.804 268.104 306.323 267.572 307.109 267.239C312.432 267.201 317.52 267.165 322.608 267.128C322.608 267.128 322.756 267.194 322.847 267.429C323.282 267.764 323.624 267.942 323.972 267.954C327.102 268.059 330.232 268.134 333.362 268.218C333.27 268.531 333.257 268.903 333.074 269.147C332.176 270.341 328.849 269.682 330.367 272.721C331.155 274.295 331.942 275.87 332.804 277.604C332.011 277.921 331.143 278.208 330.274 278.213C323.955 278.253 317.635 278.226 311.316 278.248C310.417 278.251 309.519 278.408 308.481 278.655Z" fill="#E5E9FD"/>
<path d="M56 296.49C56.2623 296.366 56.6261 296.333 57.1673 296.349C56.9303 296.459 56.5159 296.52 56 296.49Z" fill="#85A4E8"/>
<path d="M67.6647 296.271C67.8199 296.257 67.8401 296.504 67.822 296.626C67.568 296.702 67.3323 296.655 67.0059 296.532C67.1133 296.399 67.3114 296.342 67.6647 296.271Z" fill="#85A4E8"/>
<path d="M62.9407 296.489C62.8903 296.44 63.1215 296.368 63.2376 296.402C63.3537 296.436 63.1891 296.559 63.1891 296.559C63.1891 296.559 62.9911 296.537 62.9407 296.489Z" fill="#85A4E8"/>
<path d="M58.4327 296.459C58.3822 296.404 58.6214 296.335 58.7411 296.369C58.8607 296.404 58.6911 296.539 58.6911 296.539C58.6911 296.539 58.4832 296.513 58.4327 296.459Z" fill="#85A4E8"/>
<path d="M333.568 268.193C330.232 268.134 327.102 268.059 323.972 267.954C323.624 267.942 323.282 267.764 322.898 267.491C328.371 267.314 333.883 267.31 339.626 267.321C337.83 267.614 335.801 267.891 333.568 268.193Z" fill="#D0D9FD"/>
<path d="M341.867 302.938C342.094 302.811 342.322 302.788 342.719 302.806C342.629 303.007 342.371 303.167 341.994 303.288C341.875 303.249 341.869 303.042 341.867 302.938Z" fill="#85A4E8"/>
<path d="M184.97 244.46L184.967 244.468L184.964 244.476C184.29 246.382 183.707 247.987 183.131 249.574C181.234 249.488 179.34 249.417 177.447 249.346C172.918 249.176 168.402 249.007 163.894 248.643C155.959 248.003 148.047 247.039 139.98 245.868C139.971 245.581 139.962 245.295 139.952 245.01C139.818 240.925 139.694 237.126 139.899 233.346C140.046 230.631 140.351 227.948 140.659 225.248C140.855 223.521 141.052 221.787 141.209 220.032C141.252 219.556 141.295 219.079 141.338 218.602C141.734 214.217 142.132 209.813 142.295 205.401C142.328 204.498 142.133 203.606 141.894 202.759C141.799 202.423 141.701 202.103 141.604 201.789C141.448 201.28 141.297 200.789 141.176 200.279L141.071 199.834L140.618 199.899L139.929 199.999L139.589 200.048L139.513 200.384C139.454 200.644 139.389 200.912 139.323 201.184C139.176 201.791 139.024 202.419 138.921 203.043C138.557 205.253 138.197 207.464 137.837 209.674C137.001 214.807 136.165 219.937 135.275 225.058C135.233 225.302 135.078 225.565 134.82 225.894C134.743 225.992 134.651 226.102 134.553 226.219C134.449 226.344 134.338 226.476 134.233 226.609L134.054 226.454C131.031 223.838 128.185 221.375 125.259 218.748C125.312 206.022 126.173 189.493 129.302 178.607C129.954 176.339 130.52 174.123 130.253 172.113C129.988 170.119 128.916 168.383 126.52 166.97C130.27 164.679 134.519 163.983 138.882 163.269C139.014 163.247 139.146 163.226 139.278 163.204L139.295 163.201C140.037 163.079 140.749 162.963 141.668 162.957C142.644 164.092 143.553 165.217 144.449 166.326C144.551 166.453 144.653 166.579 144.755 166.706C145.793 167.99 146.821 169.25 147.912 170.457C151.451 174.37 155.364 177.933 160.324 180.185C163.565 181.657 166.534 182.169 169.215 181.646C171.667 181.168 173.824 179.836 175.691 177.685C175.944 178.284 176.194 178.888 176.445 179.493C177.235 181.402 178.033 183.326 178.94 185.186C180.298 187.966 181.687 190.713 183.075 193.457C184.896 197.055 186.713 200.647 188.448 204.298C190.285 208.161 192.121 212.047 193.211 216.09C193.523 217.246 193.51 218.513 193.389 219.887C193.343 220.407 193.28 220.956 193.215 221.518C193.117 222.368 193.015 223.248 192.965 224.105C191.57 227.673 190.19 231.18 188.8 234.711C187.537 237.921 186.266 241.15 184.97 244.46Z" fill="white" stroke="black"/>
<path d="M127.067 167C127.252 167.107 127.236 167.35 127.327 167.401C132.044 170.024 135.751 171.561 134.5 175.913C131.046 187.93 129.844 201.534 130.018 214C130.025 214.537 134.505 225.755 134.5 226.5C131.194 226.927 121.49 225 117.647 223.925C118.129 223.87 113.804 222.85 117.647 223.925C121.49 225 115.749 223.633 115.5 223.925C115.85 223.738 115.434 224.064 115.5 223.925C114.154 224.542 112.862 223.362 111.811 223.925C111.484 223.425 111.241 223.053 111.001 222.483C111 221.756 110.996 221.227 111.011 220.508C111.488 217.012 111.946 213.706 112.404 210.401C113.684 203.43 114.78 196.419 116.308 189.503C117.326 184.897 118.813 180.377 120.364 175.913C121.605 172.34 123.915 169.399 127.067 167Z" fill="white"/>
<path d="M175.861 176.557C171.976 181.643 166.891 182.618 160.532 179.73C155.662 177.519 151.804 174.013 148.284 170.122C146.122 167.731 144.204 165.119 142.109 162.465C148.627 161.239 152.196 156.844 154.465 151.016C154.91 149.874 155.388 148.744 156.038 147.545C156.615 148.475 157.08 149.446 157.383 150.464C159.503 157.587 163.77 163.07 170.037 166.992C170.611 167.352 171.521 167.177 172.276 167.25C173.63 168.291 174.985 169.331 176.437 170.515C176.32 172.566 176.106 174.474 175.861 176.557Z" fill="white"/>
<path d="M172.241 167.058C171.521 167.177 170.611 167.353 170.036 166.993C163.77 163.07 159.502 157.587 157.382 150.465C157.079 149.446 156.614 148.475 156.096 147.369C156.8 143.835 157.632 140.414 158.6 136.86C159.047 136.368 159.357 136.009 160.038 135.222C163.102 142.271 167.486 147.997 175.186 150.486C174.77 151.244 174.017 151.801 173.753 152.535C172.083 157.175 170.386 161.84 172.241 167.058Z" fill="white"/>
<path d="M101.385 212.779C101.411 212.94 101.287 213.017 101.014 212.999C100.994 212.839 101.118 212.77 101.385 212.779Z" fill="#091F5C"/>
<path d="M191.384 125.218C190.223 128.603 191.034 131.679 192.999 134.524C193.847 135.751 192.949 138.187 191.03 138.485C189.101 138.783 187.046 138.267 184.956 137.923C184.865 137.739 184.895 137.702 184.895 137.702C189.546 137.746 189.676 137.711 191.686 135.874C189.999 132.419 188.816 128.944 191.237 125.241C191.408 125.217 191.374 125.234 191.384 125.218Z" fill="black"/>
<path d="M174.195 125.932C175.372 125.806 176.444 125.756 177.274 125.718C177.743 126.824 178.177 127.847 178.695 129.003C176.513 129.149 174.924 128.145 174.195 125.932Z" fill="white"/>
<path d="M184.85 137.756C184.624 137.693 184.415 137.612 184.205 137.531C184.391 137.521 184.576 137.511 184.829 137.601C184.896 137.702 184.866 137.739 184.85 137.756Z" fill="#EC8D8F"/>
<path d="M179.396 129.379C179.435 129.268 179.53 129.245 179.769 129.24C179.76 129.328 179.605 129.397 179.396 129.379Z" fill="#D8BDE9"/>
<path d="M79.764 277.703C79.1433 275.67 78.5227 273.637 77.8984 271.408C79.8454 268.378 82.5598 267.124 86.4077 267.3C91.8671 267.253 96.8884 267.215 102.139 267.212C110.266 267.25 118.165 267.253 126.064 267.256C127.164 267.251 128.264 267.246 129.712 267.378C132.796 267.445 135.532 267.374 138.377 267.409C147.75 267.457 157.013 267.414 166.275 267.315C167.192 267.305 168.105 266.947 169.019 266.751C170.242 267.08 171.451 267.599 172.692 267.695C174.749 267.855 176.828 267.744 179.163 267.932C180.2 269.313 182.608 269.508 181.777 271.657C180.877 273.983 181.694 275.701 183.167 277.231C182.09 277.231 181.214 277.231 179.803 277.231C180.712 277.727 181.053 277.914 181.184 278.144C180.266 278.158 179.557 278.129 178.804 277.93C177.815 277.861 176.87 277.963 175.699 278.123C173.784 278.213 172.093 278.244 170.172 278.257C168.266 278.248 166.59 278.259 164.702 278.253C163.306 278.394 162.121 278.55 160.811 278.526C160.358 278.296 160.031 278.204 159.704 278.204C140.771 278.212 121.838 278.226 102.671 278.233C100.075 278.23 97.7152 278.233 95.1219 278.231C91.3546 278.217 87.8195 278.256 84.287 278.178C82.7766 278.145 81.2715 277.869 79.764 277.703Z" fill="#A9C0F8"/>
<path d="M96.2038 201.349C96.0614 201.469 95.7517 201.574 95.4082 201.549C95.5952 201.391 95.8158 201.362 96.2038 201.349Z" fill="#05104A"/>
<path d="M89.6955 213.103C89.6882 213.229 89.621 213.298 89.5537 213.366C89.581 213.26 89.6083 213.153 89.6955 213.103Z" fill="#091F5C"/>
<path d="M90.8703 213.234C90.8083 213.163 90.7469 213.092 90.6855 213.02C90.7293 213.044 90.7731 213.069 90.8445 213.163C90.872 213.232 90.8703 213.234 90.8703 213.234Z" fill="#091F5C"/>
<path d="M181.394 278.1C181.053 277.914 180.711 277.727 179.803 277.231C181.214 277.231 182.09 277.231 183.349 277.215C184.442 277.046 185.15 276.893 186.001 276.883C187.384 277.094 188.626 277.162 190.091 277.233C191.501 277.234 192.688 277.233 194.062 277.231C194.619 277.23 194.991 277.229 195.598 277.23C199.743 277.233 203.653 277.233 207.563 277.233C207.709 276.959 207.856 276.685 208.002 276.412C204.5 274.409 203.396 271.409 203.867 267.755C212.213 267.749 220.558 267.744 229.169 267.925C232.261 270.114 232.038 272.98 231.512 275.699C232.914 276.257 234.143 276.745 235.205 277.235C234.652 277.397 234.267 277.558 233.647 277.725C219.53 277.73 205.648 277.721 191.767 277.744C190.802 277.745 189.838 277.986 188.707 278.145C188.318 278.151 188.095 278.126 187.772 277.996C187.238 277.966 186.806 278.04 186.208 278.145C185.822 278.151 185.6 278.126 185.33 278.028C185.143 278.004 185.004 278.052 184.669 278.138C183.941 278.151 183.41 278.125 182.83 278.027C182.643 278.003 182.504 278.051 182.205 278.137C181.828 278.149 181.611 278.125 181.394 278.1Z" fill="#C6D2FC"/>
<path d="M294.647 266.747C298.694 266.893 302.55 267.065 306.64 267.238C306.322 267.573 305.804 268.105 305.213 268.203C301.594 268.804 300.566 270.335 301.575 273.798C301.642 274.027 301.742 274.299 301.678 274.504C300.715 277.544 302.511 277.868 304.814 277.74C305.215 277.718 305.623 277.83 306.176 278.006C306.325 278.133 306.343 278.229 306.169 278.224C305.456 278.239 304.917 278.258 304.378 278.278C303.997 278.248 303.617 278.219 302.821 278.202C300.397 278.241 298.389 278.267 296.381 278.292C296.001 278.263 295.622 278.233 294.824 278.209C289.394 278.195 284.382 278.175 279.364 278.062C279.358 277.969 279.345 277.782 279.424 277.603C279.448 276.022 279.394 274.62 279.34 273.219C280.385 271.181 280.314 271.149 277.799 269.884C276.866 269.414 276.173 268.466 275.371 267.736C279.869 267.734 284.369 267.823 288.863 267.687C290.734 267.63 292.592 267.091 294.647 266.747Z" fill="#DDE4FE"/>
<path d="M275.137 267.732C276.173 268.466 276.866 269.414 277.799 269.883C280.314 271.148 280.384 271.18 279.34 273.218C279.394 274.62 279.448 276.021 279.195 277.591C276.882 277.75 274.876 277.741 272.826 277.649C272.646 277.62 272.51 277.674 272.139 277.734C259.23 277.733 246.555 277.725 233.881 277.718C234.266 277.557 234.651 277.397 235.412 277.235C236.482 277.234 237.177 277.234 238.038 277.234C238.427 277.234 238.649 277.234 239.09 277.234C240.329 277.234 241.35 277.234 242.496 277.234C242.704 277.234 242.788 277.233 243.105 277.234C247.085 277.234 250.831 277.237 254.576 277.233C257.616 277.23 257.608 277.229 256.96 274.259C256.872 273.861 256.784 273.38 256.924 273.027C257.902 270.554 256.486 269.992 254.465 269.694C253.328 269.527 251.803 269.622 251.865 267.747C259.544 267.741 267.223 267.735 275.137 267.732ZM265.612 277.184C266.506 277.184 267.4 277.184 268.294 277.184C268.278 277.016 268.261 276.849 268.245 276.682C267.287 276.773 266.329 276.863 265.612 277.184Z" fill="#D8DFFE"/>
<path d="M251.632 267.742C251.804 269.622 253.329 269.527 254.465 269.695C256.487 269.993 257.903 270.554 256.925 273.027C256.785 273.38 256.873 273.861 256.96 274.259C257.609 277.229 257.617 277.23 254.577 277.233C250.831 277.237 247.086 277.235 243.105 277.082C242.819 276.669 242.768 276.408 242.716 276.146C242.627 276.151 242.538 276.155 242.449 276.159C242.423 276.517 242.397 276.875 242.372 277.234C241.351 277.234 240.33 277.235 239.071 277.085C238.63 276.776 238.426 276.616 238.222 276.457C238.105 276.716 237.989 276.975 237.872 277.234C237.177 277.234 236.483 277.234 235.58 277.234C234.143 276.745 232.914 276.256 231.511 275.699C232.038 272.979 232.26 270.114 229.402 267.935C236.714 267.752 244.056 267.744 251.632 267.742Z" fill="#C9D4FD"/>
<path d="M185.858 276.741C185.15 276.893 184.441 277.045 183.55 277.214C181.694 275.7 180.877 273.982 181.776 271.657C182.607 269.507 180.2 269.312 179.396 267.946C187.375 267.761 195.387 267.748 203.633 267.744C203.396 271.409 204.499 274.409 208.002 276.411C207.855 276.685 207.709 276.959 207.562 277.232C203.652 277.232 199.742 277.232 195.507 277.106C194.746 277.064 194.311 277.147 193.875 277.231C192.688 277.232 191.5 277.233 189.996 277.097C188.499 275.261 187.168 276.18 185.858 276.741Z" fill="#B8CBFB"/>
<path d="M169.129 263.26C170.137 262.921 171.369 262.341 172.619 262.3C186.449 261.841 200.282 261.466 214.114 261.065C215.349 261.029 216.584 260.963 217.975 260.999C218.079 263.041 216.841 263.215 215.242 263.208C201.277 263.146 187.312 263.135 173.347 263.124C172.019 263.122 170.69 263.218 169.129 263.26Z" fill="#7C9BE0"/>
<path d="M292.534 197.227C292.688 197.124 293.01 197.027 293.354 197.076C293.152 197.227 292.927 197.23 292.534 197.227Z" fill="#E5E9FD"/>
<path d="M134.395 227.427C134.873 226.53 135.638 225.892 135.768 225.144C137.042 217.814 138.204 210.465 139.415 203.124C139.561 202.239 139.803 201.37 140.001 200.494C140.231 200.461 140.46 200.428 140.69 200.395C141.082 202.058 141.856 203.736 141.795 205.383C141.615 210.258 141.148 215.125 140.712 219.988C140.313 224.436 139.642 228.865 139.4 233.319C139.172 237.517 139.348 241.737 139.341 246.169C138.757 246.345 138.176 246.316 137.6 246.249C133.161 245.735 132.484 245.071 132.854 240.651C133.218 236.3 133.865 231.972 134.395 227.427Z" fill="white"/>
<path d="M183.688 250.138C184.094 248.389 184.713 246.689 185.397 244.815C186.307 246.39 187.151 248.138 188.14 250.186C186.484 250.186 185.192 250.186 183.688 250.138Z" fill="#0A1853"/>
<path d="M138.133 266.778C138.353 266.82 138.33 267.065 138.298 267.184C135.531 267.374 132.796 267.445 129.893 267.412C132.454 267.118 135.183 266.927 138.133 266.778Z" fill="#2C4997"/>
<path d="M114 224.164C114.119 223.909 114.381 223.603 114.807 223.279C114.696 223.546 114.419 223.83 114 224.164Z" fill="#0E2D6F"/>
<path d="M305.485 186.925C305.412 187.007 305.28 187.016 305.147 187.025C305.24 186.968 305.332 186.91 305.485 186.925Z" fill="#DFE5FE"/>
<path d="M304.056 186.424C304.123 186.377 304.168 186.543 304.168 186.543C304.168 186.543 303.989 186.471 304.056 186.424Z" fill="#DFE5FE"/>
<path d="M311.422 302.897C311.456 302.806 311.539 302.784 311.747 302.795C311.738 302.873 311.604 302.92 311.422 302.897Z" fill="#6B8AD3"/>
<path d="M197.926 302.909C197.879 302.84 198.122 302.783 198.244 302.811C198.365 302.84 198.197 303.014 198.197 303.014C198.197 303.014 197.973 302.978 197.926 302.909Z" fill="#7C9BE0"/>
<path d="M195.926 302.909C195.879 302.84 196.122 302.783 196.244 302.811C196.365 302.84 196.197 303.014 196.197 303.014C196.197 303.014 195.973 302.978 195.926 302.909Z" fill="#7C9BE0"/>
<path d="M112.037 302.946C115.218 302.794 118.562 302.769 122.136 302.786C118.978 302.91 115.589 302.992 112.037 302.946Z" fill="#85A4E8"/>
<path d="M123.918 302.899C123.953 302.804 124.037 302.78 124.247 302.792C124.237 302.876 124.102 302.923 123.918 302.899Z" fill="#85A4E8"/>
<path d="M296.533 278.428C298.389 278.266 300.397 278.24 302.635 278.249C300.804 278.376 298.745 278.47 296.533 278.428Z" fill="#050F49"/>
<path d="M304.485 278.4C304.917 278.258 305.456 278.239 306.192 278.267C305.79 278.384 305.191 278.453 304.485 278.4Z" fill="#050F49"/>
<path d="M176.529 278.21C176.374 278.23 176.155 278.129 176.039 278.097C176.868 277.963 177.814 277.861 178.803 277.93C178.125 278.13 177.404 278.16 176.529 278.21Z" fill="#C6D2FC"/>
<path d="M98.1411 248.508C98.17 248.491 98.1123 248.525 98.1411 248.508Z" fill="#091F5C"/>
<path d="M107.053 248.106C107.167 247.983 107.428 247.888 107.833 247.808C107.718 247.927 107.458 248.031 107.053 248.106Z" fill="#05104A"/>
<path d="M279.364 278.061C261.33 278.18 243.291 278.216 225.251 278.228C213.279 278.237 201.306 278.212 189.104 278.158C189.837 277.985 190.801 277.745 191.766 277.743C205.647 277.72 219.529 277.73 233.646 277.725C246.556 277.725 259.23 277.733 272.263 277.739C272.622 277.737 272.87 277.732 272.87 277.732C274.876 277.741 276.882 277.75 279.117 277.77C279.345 277.782 279.358 277.968 279.364 278.061Z" fill="#A9C0F8"/>
<path d="M186 276.883C187.168 276.18 188.499 275.262 189.773 277.096C188.626 277.162 187.384 277.093 186 276.883Z" fill="#A9C0F8"/>
<path d="M187.77 277.996C187.494 278.134 187.118 278.169 186.557 278.158C186.804 278.04 187.237 277.966 187.77 277.996Z" fill="#A9C0F8"/>
<path d="M194.061 277.231C194.31 277.148 194.746 277.064 195.271 277.104C194.99 277.229 194.618 277.23 194.061 277.231Z" fill="#A9C0F8"/>
<path d="M185.331 278.028C185.294 278.125 185.208 278.15 184.994 278.138C185.004 278.052 185.143 278.003 185.331 278.028Z" fill="#A9C0F8"/>
<path d="M182.83 278.027C182.793 278.124 182.708 278.148 182.494 278.136C182.504 278.051 182.643 278.002 182.83 278.027Z" fill="#A9C0F8"/>
<path d="M265.492 277.069C266.33 276.864 267.287 276.773 268.245 276.682C268.261 276.849 268.278 277.017 268.295 277.184C267.401 277.184 266.507 277.184 265.492 277.069Z" fill="#C9D4FD"/>
<path d="M238.038 277.235C237.988 276.975 238.105 276.716 238.222 276.457C238.426 276.616 238.629 276.776 238.852 277.085C238.649 277.234 238.427 277.235 238.038 277.235Z" fill="#C6D2FC"/>
<path d="M242.497 277.234C242.398 276.875 242.423 276.517 242.449 276.159C242.538 276.155 242.627 276.151 242.716 276.146C242.768 276.408 242.819 276.669 242.871 277.082C242.789 277.234 242.705 277.234 242.497 277.234Z" fill="#C6D2FC"/>
<path d="M272.827 277.65C272.871 277.733 272.622 277.738 272.498 277.733C272.51 277.675 272.646 277.621 272.827 277.65Z" fill="#DDE4FE"/>
<path d="M259.139 277.009C259.168 276.992 259.111 277.026 259.139 277.009Z" fill="#C9D4FD"/>
<g clip-path="url(#clip1_125_102)">
<path d="M260.83 243.039C263.59 243.039 265.83 240.799 265.83 238.039V233.039H260.83C258.07 233.039 255.83 235.279 255.83 238.039C255.83 240.799 258.07 243.039 260.83 243.039Z" fill="#0ACF83"/>
<path d="M255.83 228.039C255.83 225.279 258.07 223.039 260.83 223.039H265.83V233.039H260.83C258.07 233.039 255.83 230.799 255.83 228.039Z" fill="#A259FF"/>
<path d="M255.83 218.039C255.83 215.279 258.07 213.039 260.83 213.039H265.83V223.039H260.83C258.07 223.039 255.83 220.799 255.83 218.039Z" fill="#F24E1E"/>
<path d="M265.83 213.039H270.83C273.59 213.039 275.83 215.279 275.83 218.039C275.83 220.799 273.59 223.039 270.83 223.039H265.83V213.039Z" fill="#FF7262"/>
<path d="M275.83 228.039C275.83 230.799 273.59 233.039 270.83 233.039C268.07 233.039 265.83 230.799 265.83 228.039C265.83 225.279 268.07 223.039 270.83 223.039C273.59 223.039 275.83 225.279 275.83 228.039Z" fill="#1ABCFE"/>
</g>
<g clip-path="url(#clip2_125_102)">
<path d="M284.399 227.391L282.523 206.351H303.136L301.258 227.388L292.817 229.728L284.399 227.391Z" fill="#E44D26"/>
<path d="M292.83 227.939L299.651 226.048L301.256 208.071H292.83V227.939Z" fill="#F16529"/>
<path d="M292.83 215.874H289.415L289.18 213.232H292.83V210.651H286.359L286.421 211.344L287.055 218.455H292.83V215.874ZM292.83 222.576L292.819 222.579L289.945 221.803L289.761 219.745H287.171L287.532 223.797L292.818 225.264L292.83 225.261V222.576Z" fill="#EBEBEB"/>
<path d="M292.821 215.874V218.455H295.999L295.699 221.802L292.821 222.578V225.263L298.112 223.797L298.15 223.361L298.757 216.567L298.82 215.874H298.124H292.821ZM292.821 210.651V213.232H299.055L299.106 212.652L299.224 211.344L299.286 210.651H292.821Z" fill="white"/>
</g>
<g clip-path="url(#clip3_125_102)">
<path d="M245.143 258.039H234.518C231.929 258.039 229.83 255.94 229.83 253.352V242.727C229.83 240.138 231.929 238.039 234.518 238.039H245.143C247.731 238.039 249.83 240.138 249.83 242.727V253.352C249.83 255.94 247.731 258.039 245.143 258.039Z" fill="#0277BD"/>
<path d="M234.03 250.019L234.253 247.524H239.838V250.019H234.03ZM239.838 255.07H233.58L233.807 252.575H239.838V255.07ZM239.838 240.942V243.538L239.827 243.536L237.047 244.286L236.87 246.276H234.365L234.714 242.358L239.826 240.939L239.838 240.942Z" fill="#EBEBEB"/>
<path d="M242.902 247.524L242.612 244.288L239.829 243.536V240.94L244.945 242.358L244.982 242.78L245.569 249.349L245.63 250.019L246.08 255.07H239.829V252.575H243.345L243.118 250.019H239.829V247.524H242.902Z" fill="white"/>
</g>
<g clip-path="url(#clip4_125_102)">
<path d="M290.314 247.039H282.346C280.404 247.039 278.83 248.613 278.83 250.555V258.523C278.83 260.465 280.404 262.039 282.346 262.039H290.314C292.256 262.039 293.83 260.465 293.83 258.523V250.555C293.83 248.613 292.256 247.039 290.314 247.039Z" fill="#F0DB4F"/>
<path d="M282.774 259.574L283.922 258.879C284.144 259.272 284.345 259.604 284.828 259.604C285.292 259.604 285.584 259.423 285.584 258.718V253.925H286.993V258.738C286.993 260.198 286.138 260.863 284.889 260.863C283.761 260.863 283.107 260.279 282.774 259.574M287.759 259.423L288.907 258.758C289.209 259.252 289.602 259.614 290.296 259.614C290.88 259.614 291.253 259.322 291.253 258.919C291.253 258.436 290.87 258.265 290.226 257.983L289.873 257.832C288.856 257.399 288.182 256.855 288.182 255.708C288.182 254.65 288.987 253.845 290.246 253.845C291.142 253.845 291.787 254.157 292.25 254.972L291.152 255.677C290.91 255.244 290.649 255.073 290.246 255.073C289.833 255.073 289.571 255.335 289.571 255.677C289.571 256.1 289.833 256.271 290.437 256.533L290.79 256.684C291.988 257.198 292.662 257.721 292.662 258.899C292.662 260.168 291.666 260.863 290.327 260.863C289.018 260.863 288.172 260.239 287.759 259.423Z" fill="#323330"/>
</g>
<defs>
<clipPath id="clip0_125_102">
<rect width="12" height="12" fill="white" transform="translate(242 205)"/>
</clipPath>
<clipPath id="clip1_125_102">
<rect width="20" height="30" fill="white" transform="translate(255.83 213.039)"/>
</clipPath>
<clipPath id="clip2_125_102">
<rect width="24" height="24" fill="white" transform="translate(280.83 206.039)"/>
</clipPath>
<clipPath id="clip3_125_102">
<rect width="20" height="20" fill="white" transform="matrix(1 0 0 -1 229.83 258.039)"/>
</clipPath>
<clipPath id="clip4_125_102">
<rect width="15" height="15" fill="white" transform="translate(278.83 247.039)"/>
</clipPath>
</defs>
</svg>
