<svg width="336" height="201" viewBox="0 0 459 282" fill="none" xmlns="http://www.w3.org/2000/svg">
<path d="M280.284 94.4089C274.555 88.4257 274.555 88.4257 280.389 83.146C288.075 76.1897 288.075 76.1898 295.332 83.7334C300.248 88.8445 300.248 89.0145 295.282 94.039C295.049 94.2753 294.802 94.4985 294.568 94.7345C287.337 102.033 287.337 102.033 280.284 94.4089ZM291.654 94.2083C292.917 91.9833 297.187 91.2613 295.49 87.6168C292.205 80.5618 287.785 79.7143 282.118 84.7509C281.748 85.08 281.383 85.416 281.001 85.7306C278.962 87.408 278.586 89.1544 280.67 91.1112C281.873 92.2403 283.12 93.3616 284.118 94.6618C286.518 97.787 288.805 97.8895 291.654 94.2083Z" fill="#212F3D"/>
<path d="M343.247 141.258C340.915 140.937 340.485 139.635 340.434 137.986C340.308 133.846 340.117 129.708 340.003 125.567C339.937 123.196 341.121 121.837 343.513 121.61C344.173 121.547 344.848 121.455 345.5 121.524C349.716 121.972 355.36 119.411 357.852 122.728C360.942 126.844 358.797 132.977 359.41 138.208C359.625 140.05 357.979 141.108 356.068 141.151C351.938 141.244 347.808 141.283 343.247 141.258ZM342.296 137.521C346.101 141.295 351.336 140.275 354.711 138.66C358.509 136.843 355.87 131.434 356.393 127.635C356.599 126.137 356.318 124.586 354.411 124.122C354.25 124.083 354.084 124.064 353.922 124.026C345.875 122.093 342.075 125.035 342.105 133.185C342.109 134.348 342.146 135.511 342.296 137.521Z" fill="#212F3D"/>
<path d="M18.7888 101.309C18.7936 113.024 19.535 111.461 8.90913 111.613C0.762674 111.73 0.568521 111.543 0.161966 103.179C-0.32009 93.2611 -0.32012 93.2611 9.01951 92.2984C17.562 91.418 18.1814 91.9613 18.7888 101.309ZM9.94279 109.809C12.2014 109.295 15.4907 111.332 16.1634 106.993C17.8887 95.8649 15.277 93.2135 4.06663 94.9598C3.92265 94.9822 3.7996 95.1388 2.95872 95.7336C2.95872 97.9986 3.02866 100.775 2.9445 103.547C2.75553 109.771 2.72437 109.77 9.94279 109.809Z" fill="#E67E22"/>
<path d="M91.6613 58.0329C90.8674 58.0506 90.5343 58.0791 90.2035 58.0619C86.6909 57.8794 81.9095 60.9564 79.9436 57.5914C77.1196 52.7574 78.1481 46.635 78.3401 40.9995C78.3456 40.84 78.3906 40.5925 78.4955 40.5387C83.5033 37.9719 88.8294 39.359 94.0049 39.501C96.9904 39.583 96.6267 42.4506 96.7193 44.5391C96.8515 47.5234 96.702 50.5228 96.8955 53.5013C97.1264 57.0561 95.413 58.3094 91.6613 58.0329ZM80.8079 44.5721C80.8405 47.3819 80.8751 50.1916 80.9047 53.0013C80.9215 54.5916 81.2216 55.7899 83.149 56.2614C91.2388 58.2403 94.2161 55.9864 94.2103 47.6927C94.2101 47.3621 94.2475 47.0267 94.2049 46.7018C93.9271 44.5851 95.0679 41.1078 91.6922 41.2959C88.0673 41.4978 83.3742 38.3687 80.8079 44.5721Z" fill="#212F3D"/>
<path d="M308.301 30.0235C304.851 33.5294 301.495 36.7207 298.134 39.9068C297.895 40.1341 297.647 40.436 297.354 40.5119C291.465 42.0361 290.216 36.3062 287.081 33.6795C285.147 32.0598 282.312 29.7264 285.302 26.6082C288.052 23.739 290.966 21.0204 293.897 18.3318C295.359 16.9901 297.295 16.3345 298.807 17.9558C302.257 21.6524 306.526 24.7147 308.301 30.0235ZM298.207 21.1104C293.726 19.2798 292.623 23.9448 289.952 25.5278C286.928 27.3206 286.734 29.8558 289.363 32.4393C290.658 33.7113 291.816 35.1217 293.052 36.4549C294.376 37.8837 295.73 37.9525 297.447 36.918C305.247 32.2191 305.734 29.2761 299.642 22.6908C299.306 22.327 298.986 21.947 298.207 21.1104Z" fill="#E67E22"/>
<path d="M120.002 85.8232C123.826 84.5339 125.797 80.9706 128.723 78.5662C131.079 76.6297 133.017 76.2731 135.123 78.7317C136.202 79.992 137.416 81.1358 138.537 82.361C145.146 89.5805 145.143 89.5832 137.375 95.9263C136.089 96.9765 134.797 98.0193 133.522 99.0831C132.585 99.8653 131.285 100.741 130.417 99.7704C126.675 95.5851 120.659 93.1592 120 86.1794C120.032 85.7913 120.011 85.812 120.002 85.8232ZM135.965 83.3725C133.405 79.6682 130.813 79.771 128.097 83.2375C127.49 84.0125 126.605 84.5638 125.896 85.266C124.673 86.4763 122.227 87.5628 123.957 89.615C126.237 92.319 127.958 96.9601 131.713 96.5884C135.053 96.258 138.152 92.8778 139.916 89.7762C141.474 87.0364 137.563 85.935 135.965 83.3725Z" fill="#212F3D"/>
<path fill-rule="evenodd" clip-rule="evenodd" d="M133.282 123.802C146.337 124.062 158.926 124.324 171.498 124.585L172.921 124.615C180.666 124.776 183.666 127.025 184.708 134.624C185.52 140.544 186.183 146.484 186.846 152.423L186.846 152.424L186.846 152.425L186.846 152.426L186.846 152.427C187.527 158.525 188.207 164.623 189.049 170.699C189.254 172.181 189.34 173.688 189.427 175.212V175.212V175.213C189.634 178.816 189.845 182.513 191.646 186.198C204.09 178.448 217.884 175.196 231.758 171.926C233.957 171.407 236.159 170.888 238.357 170.351C234.941 168.304 231.211 167.089 227.466 165.87C222.665 164.307 217.838 162.735 213.61 159.39C214.575 158.611 215.473 157.871 216.329 157.164L216.33 157.164C218.148 155.664 219.784 154.316 221.492 153.066C224.377 150.954 225.167 148.454 223.464 145.278C222.052 142.644 222.244 139.884 222.437 137.124L222.437 137.123C222.498 136.253 222.558 135.382 222.569 134.515C222.586 133.039 223.58 132.336 224.568 131.636C225.199 131.19 225.827 130.745 226.199 130.102C222.287 123.931 222.713 121.387 228.301 115.693C234.272 109.609 241.606 107.489 249.828 107.325C261.827 107.966 271.34 116.763 276.345 121.392C278.823 123.683 280.195 124.952 280.218 123.704C280.243 122.269 280.906 120.646 281.998 118.897V162H290.904C290.844 162.426 290.85 162.898 290.94 163.423C292.399 171.875 290.267 173.714 281.543 173.113C280.602 173.049 279.655 172.883 278.697 172.715C275.915 172.227 273.037 171.723 269.937 173.633C271.072 174.214 272.196 174.78 273.309 175.341L273.309 175.341L273.309 175.341L273.309 175.341C278.082 177.747 282.642 180.045 286.899 182.889C304.687 194.775 318.665 209.435 322.831 231.287C325.449 245.022 324.173 257.506 309.682 266.707C312.307 266.707 314.809 266.712 317.223 266.716C323.17 266.726 328.586 266.735 334.002 266.677C336.415 266.651 336.964 265.259 336.531 262.94C336.029 260.249 335.447 257.558 334.864 254.865L334.864 254.865L334.864 254.865L334.864 254.865C333.364 247.941 331.864 241.008 331.727 234.054C331.617 228.405 329.759 223.284 327.912 218.193C326.103 213.208 324.305 208.252 324.168 202.858C324.156 202.404 324.101 201.949 324.045 201.491C323.862 199.981 323.675 198.432 325.024 196.734C333.256 201.554 336.063 209.508 338.933 217.639L338.933 217.639L338.933 217.64L338.934 217.641C339.914 220.418 340.902 223.217 342.115 225.917C343.22 224.209 343.1 222.63 342.99 221.182C342.973 220.957 342.956 220.736 342.944 220.517C342.873 219.231 342.805 217.944 342.737 216.657V216.656C342.393 210.155 342.048 203.65 341.362 197.183C340.702 190.964 341.551 188.582 345.857 187.811C349.924 187.082 351.861 189.126 353.074 195.863C355.81 192.799 356.857 194.928 357.396 197.216C357.603 198.094 357.825 198.969 358.047 199.845L358.047 199.845C359.005 203.631 359.965 207.425 359.741 211.409C359.391 217.644 359.451 223.879 359.511 230.115V230.115V230.116V230.116C359.534 232.471 359.557 234.825 359.557 237.18C359.558 242.676 358.958 248.174 358.357 253.67L358.357 253.672C358.127 255.772 357.898 257.871 357.702 259.97C357.31 264.168 357.936 267.294 363.356 266.848C365.902 266.639 366.853 268.324 366.769 270.71C366.762 270.918 366.754 271.127 366.745 271.336L366.745 271.342C366.695 272.631 366.644 273.928 366.777 275.201C367.2 279.252 365.497 281.044 361.363 280.923C359.113 280.858 356.861 280.925 354.608 280.992L354.607 280.992C353.009 281.039 351.41 281.087 349.813 281.087C244.48 281.099 139.147 281.099 33.8141 281.098C26.506 281.098 23.6364 277.144 25.6033 269.937C26.0131 268.435 26.8348 267.367 28.3314 267.578C31.7805 268.065 33.0047 266.003 34.3804 263.686C34.5532 263.395 34.7284 263.1 34.9107 262.806C42.5688 250.433 65.9756 249.309 71.6931 263.681C72.2902 265.183 73.0174 266.857 75.8969 266.243C75.2212 259.49 77.5064 253.393 79.9535 246.864C81.1768 243.601 82.4406 240.229 83.3952 236.614C81.5104 236.614 79.6856 236.617 77.9034 236.62H77.8904H77.8776H77.865H77.8636H77.8623H77.861C73.5441 236.627 69.4759 236.633 65.4081 236.597C63.0699 236.577 60.723 236.469 58.3979 236.23C50.1817 235.386 47.4699 232.442 46.451 224.266C45.5154 216.758 44.5015 209.26 43.4877 201.763L43.4876 201.762C42.4915 194.395 41.4953 187.027 40.5733 179.651C38.7737 165.253 37.041 150.843 35.5721 136.41C34.6703 127.548 38.2414 123.726 47.38 123.704C67.7413 123.657 88.1027 123.703 108.648 123.751H108.65H108.652H108.655C116.831 123.77 125.036 123.788 133.282 123.802ZM367.411 152.917C367.639 152.251 367.755 151.478 367.756 150.582C367.762 144.423 367.753 138.263 367.717 132.104C367.712 131.22 367.614 130.43 367.411 129.743V152.917ZM303.026 43.2476C301.769 42.9412 300.558 42.8946 299.44 43.2476H303.026ZM129.768 126.349C122.281 126.341 114.795 126.331 107.309 126.32C87.164 126.292 67.0189 126.264 46.8739 126.286C39.823 126.294 37.6734 128.302 38.1914 135.31C38.8981 144.869 40.0351 154.401 41.1712 163.925L41.1712 163.925L41.3994 165.84C42.5451 175.461 43.7363 185.076 44.9275 194.692C46.0494 203.747 47.1713 212.803 48.2551 221.863C49.2656 230.311 51.3565 232.336 60.01 233.804C64.1476 234.506 68.2871 234.459 72.4234 234.413H72.4236C74.9659 234.384 77.5071 234.356 80.0458 234.501C83.1778 234.68 84.9286 233.437 86.0822 230.487C87.6803 226.401 89.3651 222.347 91.0499 218.294C92.9421 213.742 94.8343 209.189 96.6035 204.59C98.0861 200.736 100.354 199.151 104.522 199.438C107.584 199.648 110.663 199.614 113.742 199.58H113.743C115.357 199.561 116.972 199.543 118.584 199.561C126.266 199.643 127.572 201.263 126.059 208.589C124.581 215.745 123.136 222.908 121.718 230.076C121.089 233.254 121.313 235.524 125.702 235.494C142.27 235.378 158.839 235.439 175.408 235.501C177.26 235.507 179.113 235.514 180.965 235.521C185.226 235.536 187.255 233.284 187.081 229.353C186.913 225.563 186.463 221.783 186.012 218.006C185.893 217.005 185.774 216.004 185.66 215.003C183.856 199.175 182.045 183.348 180.186 167.527C179.972 165.706 179.759 163.884 179.547 162.062L179.543 162.029C178.47 152.824 177.397 143.618 176.103 134.443C175.314 128.847 172.368 126.581 166.916 126.543C157.885 126.478 148.853 126.437 139.398 126.394L139.392 126.394L139.375 126.394C136.225 126.38 133.027 126.365 129.768 126.349ZM242.269 216.924C247.78 226.875 254.304 236.15 261.738 244.747C269.445 253.66 278.097 261.503 289.604 265.354C303.512 270.009 316.633 263.111 320.773 249.116C323.317 240.518 321.286 232.221 318.392 224.25C309.494 199.744 290.414 185.609 267.297 175.844C264.371 174.608 261.276 174.269 257.99 175.178C253.094 176.531 248.027 176.589 243.117 175.218C238.267 173.864 233.558 174.434 228.757 175.326C216.833 177.544 205.37 181.021 194.878 187.223C194.659 187.352 194.429 187.478 194.197 187.605C192.803 188.369 191.306 189.189 191.477 191.125C191.563 192.095 191.641 193.068 191.719 194.042C192.098 198.777 192.481 203.572 193.831 208.532C194.999 207.227 195.961 205.798 196.903 204.399C198.822 201.548 200.659 198.82 203.99 197.515C202.735 200.058 201.191 202.361 199.653 204.654L199.653 204.654L199.652 204.656L199.647 204.664C199.166 205.381 198.686 206.097 198.216 206.819C195.261 211.356 193.416 215.868 194.587 221.777C194.692 222.309 194.808 222.849 194.925 223.394L194.926 223.397C195.895 227.899 196.953 232.819 192.818 237.142C193.949 237.689 195.046 238.301 196.127 238.903C200.786 241.5 205.153 243.934 210.683 240.331C211.22 239.981 212.003 239.649 212.577 239.767C217.49 240.78 222.064 240.123 226.987 238.827C230.081 238.012 233.434 238.202 236.799 238.393H236.799C238.536 238.492 240.275 238.591 241.984 238.552C245.67 238.467 247.021 240.253 247.129 243.708C247.306 249.402 246.516 254.978 245.477 260.54C244.463 265.969 245.052 266.75 250.514 266.775C258.719 266.812 266.924 266.827 275.128 266.757C275.727 266.752 276.331 266.77 276.943 266.787C279.066 266.848 281.293 266.911 283.791 266.058C262.208 253.556 248.752 234.878 238.312 213.886C235.39 208.012 232.523 202.407 227.501 197.513C226.301 197.91 225.101 198.408 223.887 198.911L223.887 198.911L223.887 198.911L223.886 198.911C219.61 200.684 215.154 202.531 209.867 200.37C210.032 200.07 210.169 199.781 210.298 199.508L210.298 199.508C210.557 198.961 210.784 198.482 211.137 198.126C211.237 198.025 211.337 197.924 211.437 197.822L211.582 197.674C213.212 196.015 214.93 194.267 217.189 193.809C220.289 193.182 222.77 191.281 225.204 189.415C227.845 187.391 230.431 185.409 233.691 185.144C239.222 184.694 244.221 182.869 249.213 181.047C251.684 180.145 254.154 179.244 256.686 178.51C256.875 178.455 257.064 178.398 257.252 178.341C259.433 177.686 261.487 177.068 262.486 179.977C263.441 182.758 261.455 183.639 259.558 184.479L259.557 184.48C259.283 184.601 259.012 184.721 258.752 184.846C257.695 185.353 256.573 185.731 255.442 186.112L255.442 186.112C253.259 186.846 251.042 187.593 249.182 189.307C249.51 189.936 249.757 190.592 250 191.234C250.699 193.083 251.357 194.823 253.754 195.517C274.417 201.505 290.88 214.188 306.363 228.382C306.477 228.487 306.594 228.592 306.712 228.698C307.861 229.727 309.131 230.866 308.935 232.797C307.103 232.995 306.206 231.984 305.355 231.026C305.118 230.759 304.885 230.496 304.637 230.265C291.096 217.659 276.042 207.292 259.158 199.576C255.509 197.908 252.433 197.108 249.828 201.43C248.828 203.09 246.984 204.321 245.246 205.481C245.042 205.617 244.84 205.752 244.641 205.886L244.549 205.949L244.408 206.044C238.882 209.791 238.874 209.797 242.269 216.924ZM91.6395 266.797L94.2273 266.794L98.0889 266.788L100.18 266.785C108.754 266.771 108.759 266.748 110.414 258.619L110.483 258.278C113.997 241.036 117.57 223.804 121.314 206.61C122.011 203.407 121.108 202.227 118.029 202.195C117.198 202.187 116.367 202.184 115.535 202.18C113.184 202.172 110.832 202.163 108.488 202.029L108.289 202.018C100.529 201.574 100.454 201.57 97.6213 208.726L96.5716 211.377C91.2225 224.889 85.8732 238.402 80.6584 251.966C76.7411 262.154 76.1279 267.734 91.6395 266.797ZM159.928 238.067C158.945 238.061 157.962 238.065 156.979 238.07H156.978C154.788 238.081 152.598 238.091 150.415 237.979C145.284 237.714 144.82 241.219 144.744 244.865C144.608 251.455 146.052 253.493 150.668 253.624C153.873 253.714 157.08 253.789 160.286 253.865H160.286H160.286H160.287C163.579 253.942 166.872 254.019 170.164 254.113C176.665 254.298 182.709 256.302 188.753 258.306L188.753 258.306L188.754 258.306L188.754 258.306C191.08 259.077 193.405 259.848 195.757 260.515C196.064 260.602 196.372 260.713 196.681 260.824C197.93 261.271 199.197 261.726 200.485 260.673C201.055 260.208 201.244 244.374 200.621 244.092C199.207 243.451 197.833 242.7 196.46 241.949L196.459 241.949C192.873 239.988 189.285 238.026 184.959 238.01C179.527 237.991 174.095 238.013 168.351 238.037H168.349H168.347H168.345C165.621 238.048 162.826 238.059 159.928 238.067ZM353.356 230.215C351.114 230.34 348.861 230.285 346.612 230.231C342.397 230.13 338.199 230.029 334.116 231.104C333.371 232.548 333.599 233.827 333.82 235.066L333.848 235.219C334.405 238.363 334.977 241.504 335.549 244.645L335.552 244.663L335.552 244.664L335.552 244.665L335.552 244.666C336.282 248.673 337.012 252.681 337.711 256.694L337.717 256.731C338.637 262.009 339.098 264.656 340.671 265.921C342.252 267.192 344.956 267.067 350.381 266.816L350.678 266.802C353.896 266.654 354.923 265.424 355.153 262.318C355.811 253.43 356.711 244.559 357.611 235.691L357.815 233.684C358.101 230.858 356.553 230.219 353.356 230.215ZM230.474 146.989C227.643 146.307 227.012 147.746 226.999 150.235C226.971 155.971 230.725 161.721 236.666 164.156C238.895 165.07 240.571 165.905 240.191 168.699C239.737 172.036 241.995 173.224 244.696 173.401C248.189 173.631 251.725 173.584 255.219 173.335C258.097 173.13 259.71 171.525 259.538 168.369C259.188 161.973 260.075 155.769 262.815 149.894C263.399 148.641 263.729 147.325 262.084 146.459C261.21 146.285 260.49 146.752 259.765 147.223C258.826 147.833 257.876 148.449 256.564 147.692C254.952 146.761 254.166 147.705 253.349 148.688C252.761 149.394 252.157 150.12 251.217 150.185C248.468 150.372 245.905 149.943 243.319 149.205C240.972 148.536 240.654 146.724 240.336 144.91C240.113 143.638 239.889 142.364 238.966 141.481C235.968 144.473 237.242 147.177 239.855 149.663C237.51 150.633 235.917 149.935 235.026 148.457C234.075 146.88 232.83 146.918 230.901 146.977C230.763 146.981 230.62 146.985 230.474 146.989ZM154.08 266.761C154.762 266.762 155.444 266.764 156.126 266.765C157.613 266.768 159.1 266.771 160.587 266.769C169.247 266.757 169.855 266.204 171.363 256.995C171.282 256.93 171.201 256.848 171.12 256.766C170.947 256.591 170.774 256.415 170.599 256.414C153.587 256.267 136.574 256.146 119.561 256.044C118.38 256.037 117.112 256.157 116.785 257.606C116.429 259.188 117.46 260.033 118.695 260.727C120.033 261.478 121.48 261.464 122.922 261.45H122.923H122.923H122.923C123.144 261.447 123.364 261.445 123.583 261.446C125.947 261.452 128.311 261.45 130.675 261.448C134.808 261.443 138.941 261.439 143.073 261.482C143.343 261.485 143.629 261.473 143.92 261.461C145.484 261.396 147.208 261.325 147.521 263.489C147.996 266.777 150.154 266.77 153.069 266.76C153.397 266.759 153.734 266.758 154.08 266.761ZM127.255 237.283C121.648 236.294 119.316 239.257 118.631 244.288C118.508 245.191 118.336 246.088 118.164 246.985C117.962 248.042 117.759 249.099 117.637 250.165C117.461 251.702 117.59 253.482 119.647 253.51C125.306 253.589 130.966 253.576 136.609 253.563H136.611C138.72 253.558 140.827 253.554 142.93 253.554C143.064 245.482 143.13 241.459 141.152 239.432C139.186 237.417 135.201 237.372 127.255 237.283ZM246.3 201.554L246.3 201.554C248.137 199.981 250.085 198.312 249.168 195.622C247.702 191.326 245.481 187.404 239.951 186.801C239.835 187.253 240.065 187.683 240.29 188.105C240.612 188.706 240.924 189.29 240.209 189.891C239.456 190.362 238.783 190.094 238.087 189.817C237.512 189.588 236.921 189.353 236.256 189.526C236.062 189.858 235.955 190.245 235.845 190.637C235.572 191.622 235.289 192.639 233.611 192.898C228.72 193.653 230.444 196.267 232.136 198.815C232.655 198.642 232.776 198.159 232.893 197.687C233.062 197.01 233.225 196.356 234.552 196.672C234.596 196.8 234.651 196.939 234.71 197.089C234.851 197.443 235.013 197.85 235.085 198.272C236.644 207.374 237.589 207.788 245.609 202.153C245.833 201.954 246.065 201.755 246.299 201.554L246.3 201.554ZM209.002 261.555C213.998 261.961 215.49 258.834 215.683 254.727C215.851 251.169 214.902 248.027 211.135 246.936C210.966 245.689 211.672 245.043 212.36 244.413C212.869 243.947 213.368 243.49 213.496 242.805C210.113 242.102 207.579 243.753 205.537 245.537C202.079 248.558 202.666 252.81 203.212 256.766L203.214 256.783L203.27 257.185C203.619 259.737 204.894 261.984 209.002 261.555ZM350.678 222.373C350.718 222.832 350.706 223.328 350.694 223.826C350.647 225.805 350.598 227.815 353.858 227.668C357.076 227.524 357.037 225.312 357 223.189V223.188V223.187C356.994 222.821 356.987 222.457 356.998 222.108C357.011 221.665 357.02 221.221 357.03 220.778V220.776C357.079 218.426 357.127 216.084 357.77 213.773C358.425 211.414 357.428 209.908 354.981 209.524C352.068 209.066 351.809 211.041 351.625 213.178C351.508 214.543 351.357 215.905 351.195 217.369C351.026 218.888 350.846 220.517 350.678 222.373ZM249.871 147.589C253.591 146.35 255.083 142.262 253.764 140.241C251.997 137.534 248.633 137.54 245.4 137.545C244.599 137.547 243.807 137.548 243.048 137.508C242.11 146.517 242.526 147.172 249.871 147.589ZM49.6462 266.737C50.0041 266.733 50.3624 266.737 50.7208 266.74C51.5247 266.748 52.3286 266.755 53.1263 266.689C53.4628 266.661 53.8211 266.667 54.1827 266.673C55.5081 266.695 56.8781 266.717 57.3816 265.081C57.9836 263.124 56.7358 261.595 55.3858 260.313C51.1435 256.286 46.1907 258.67 44.15 265.739C45.1023 266.783 46.3002 266.757 47.8357 266.724C48.3932 266.712 48.9953 266.699 49.6462 266.737ZM243.913 134.775C244.848 134.951 245.782 135.137 246.716 135.324L246.716 135.324C248.868 135.752 251.019 136.181 253.188 136.491C255.867 136.875 257.487 135.926 257.228 132.253C253.69 134.19 250.649 133.635 247.553 132.912C244.664 132.237 241.76 131.628 238.855 131.019L238.855 131.019L238.853 131.019C237.049 130.641 235.244 130.262 233.444 129.868C233.385 129.855 233.326 129.842 233.267 129.829C233.184 129.809 233.1 129.79 233.017 129.77C231.512 129.417 230.047 129.072 229.72 131.711C229.883 131.795 230.047 131.896 230.212 131.998C230.576 132.222 230.951 132.453 231.355 132.531C235.262 133.282 239.182 133.965 243.913 134.775ZM68.7597 264.176C64.9662 257.797 60.8875 255.46 56.5795 257.353C56.8237 257.685 57.0777 258.008 57.3303 258.329C57.9014 259.055 58.4651 259.772 58.8914 260.562C59.2427 261.214 59.4821 261.923 59.7219 262.633C59.9068 263.181 60.0919 263.729 60.3288 264.252C61.7995 267.501 66.0592 267.766 68.7597 264.176ZM210.086 264.109C207.759 264.124 205.521 264.4 203.71 266.164H226.138C221.443 261.554 218.79 261.281 210.086 264.109ZM230.739 135.134C226.929 136.258 227.173 139.331 227.391 142.088C227.408 142.301 227.425 142.511 227.44 142.719C227.556 144.365 229.517 144.861 231.059 144.229C233.702 143.146 234.204 140.53 234.659 138.16L234.67 138.101C235.02 136.281 233.774 135.97 232.295 135.6C231.786 135.473 231.249 135.339 230.739 135.134ZM181.753 263.86L181.753 263.859C179.862 263.329 177.882 262.774 177.2 266.57C178.117 266.557 178.992 266.618 179.854 266.678C182.118 266.836 184.286 266.987 186.84 265.761L186.839 265.761L186.838 265.761C185.145 265.013 184.259 264.621 182.699 264.105C182.391 264.038 182.073 263.949 181.753 263.86ZM42.3626 259.718C39.0929 260.674 37.3445 262.801 36.9212 266.431C40.7718 266.483 41.3276 264.025 41.8873 261.549C42.028 260.926 42.169 260.303 42.3626 259.718ZM356.622 203.402C354.498 201.551 353.985 203.145 353.503 204.644C353.471 204.742 353.44 204.838 353.409 204.934C353.055 206.007 353.427 207.022 354.587 207.161C357.125 207.466 357.006 205.676 356.622 203.402ZM347.333 197.407C347.221 197.434 347.107 197.46 346.993 197.485C346.002 197.704 345.002 197.925 345.046 199.493C346.701 200.888 348.442 200.693 350.299 199.89C350.422 197.922 349.39 197.428 347.333 197.407Z" fill="#212F3D"/>
<path d="M235.758 160.5C235.983 162.304 240.689 159.961 241.258 159.25C242.257 158.001 243.52 156.476 244.258 155" stroke="#212F3D" stroke-width="3" stroke-linecap="round"/>
<g clip-path="url(#clip0_146_7)">
<path d="M152.044 139H149.425L151.75 142.606L146.833 139H144.212L146.538 143.725L141.621 139H139L141.287 145.098L139 157H141.621L146.538 144.239L144.212 157H146.832L151.75 143.121L149.424 157H152.044L157 141.754L152.044 139Z" fill="#FFD233"/>
</g>
<path d="M54.5695 160.352L52.6936 139.311H73.3066L71.4286 160.349L62.9875 162.689L54.5695 160.352Z" fill="#E44D26"/>
<path d="M63 160.9L69.8209 159.009L71.4257 141.032H63V160.9Z" fill="#F16529"/>
<path d="M62.9999 148.835H59.5851L59.3492 146.193H62.9999V143.612H56.5291L56.5909 144.305L57.2251 151.416H62.9999V148.835ZM62.9999 155.537L62.9884 155.54L60.1146 154.764L59.9311 152.706H57.3404L57.7019 156.758L62.9881 158.225L62.9999 158.222V155.537Z" fill="#EBEBEB"/>
<path d="M62.991 148.835V151.416H66.1685L65.8691 154.763L62.991 155.539V158.224L68.2813 156.758L68.3201 156.322L68.9265 149.528L68.9893 148.835H68.294H62.991ZM62.991 143.612V146.193H69.2242L69.276 145.613L69.3937 144.305L69.4554 143.612H62.991Z" fill="white"/>
<g clip-path="url(#clip1_146_7)">
<path d="M71.0156 206H61.9844C59.7839 206 58 207.784 58 209.984V219.016C58 221.216 59.7839 223 61.9844 223H71.0156C73.2161 223 75 221.216 75 219.016V209.984C75 207.784 73.2161 206 71.0156 206Z" fill="#F0DB4F"/>
<path d="M62.47 220.206L63.7709 219.419C64.022 219.864 64.2503 220.241 64.7979 220.241C65.3228 220.241 65.6538 220.035 65.6538 219.237V213.805H67.2514V219.259C67.2514 220.914 66.2815 221.667 64.8664 221.667C63.5884 221.667 62.8466 221.005 62.47 220.206M68.1192 220.035L69.4199 219.282C69.7624 219.841 70.2074 220.252 70.9947 220.252C71.6567 220.252 72.0788 219.921 72.0788 219.465C72.0788 218.917 71.6452 218.723 70.9149 218.404L70.5156 218.232C69.3629 217.742 68.5983 217.125 68.5983 215.825C68.5983 214.626 69.5113 213.713 70.9378 213.713C71.9534 213.713 72.6837 214.067 73.2086 214.991L71.9647 215.79C71.6908 215.3 71.3942 215.106 70.9378 215.106C70.4699 215.106 70.1732 215.402 70.1732 215.79C70.1732 216.269 70.4699 216.464 71.1545 216.76L71.5539 216.931C72.9118 217.513 73.6764 218.107 73.6764 219.442C73.6764 220.88 72.5467 221.667 71.029 221.667C69.5456 221.667 68.587 220.96 68.1192 220.035Z" fill="#323330"/>
</g>
<g clip-path="url(#clip2_146_7)">
<path d="M154.312 216H143.688C141.099 216 139 213.901 139 211.312V200.688C139 198.099 141.099 196 143.688 196H154.312C156.901 196 159 198.099 159 200.688V211.312C159 213.901 156.901 216 154.312 216Z" fill="#0277BD"/>
<path d="M143.199 207.98L143.423 205.485H149.007V207.98H143.199ZM149.007 213.031H142.75L142.977 210.536H149.007V213.031ZM149.007 198.903V201.499L148.996 201.496L146.217 202.247L146.04 204.237H143.535L143.884 200.319L148.996 198.9L149.007 198.903Z" fill="#EBEBEB"/>
<path d="M152.072 205.485L151.782 202.249L148.999 201.497V198.901L154.115 200.319L154.152 200.741L154.739 207.31L154.8 207.98L155.25 213.031H148.999V210.536H152.515L152.288 207.98H148.999V205.485H152.072Z" fill="white"/>
</g>
<g clip-path="url(#clip3_146_7)">
<path d="M102 188C104.76 188 107 185.76 107 183V178H102C99.24 178 97 180.24 97 183C97 185.76 99.24 188 102 188Z" fill="#0ACF83"/>
<path d="M97 173C97 170.24 99.24 168 102 168H107V178H102C99.24 178 97 175.76 97 173Z" fill="#A259FF"/>
<path d="M97 163C97 160.24 99.24 158 102 158H107V168H102C99.24 168 97 165.76 97 163Z" fill="#F24E1E"/>
<path d="M107 158H112C114.76 158 117 160.24 117 163C117 165.76 114.76 168 112 168H107V158Z" fill="#FF7262"/>
<path d="M117 173C117 175.76 114.76 178 112 178C109.24 178 107 175.76 107 173C107 170.24 109.24 168 112 168C114.76 168 117 170.24 117 173Z" fill="#1ABCFE"/>
</g>
<path d="M12.12 60.5237C9.0806 60.5179 8.6243 58.9617 9.23369 56.7197C11.5082 48.3511 13.799 39.987 16.0706 31.6176C16.3685 30.5198 16.7933 29.432 17.9924 29.2148C25.3387 27.8844 32.6924 27.0172 39.8579 30.0806C41.6836 30.8611 41.2408 32.5785 41.0432 34.0028C40.1704 40.2952 39.2138 46.5761 38.2752 52.8593C38.2157 53.2577 38.0019 53.6333 37.9442 54.0318C36.7224 62.4753 36.7318 62.1783 28.2041 61.9759C22.8837 61.8497 17.7331 60.5064 12.12 60.5237ZM17.6866 42.7195C23.4652 41.8926 28.9676 42.5362 35.006 45.0353C35.3053 44.7858 35.894 43.4192 35.1467 41.9497C34.3876 40.4572 32.777 40.9548 31.4708 41.0096C28.3606 41.14 25.2553 41.3909 22.1449 41.5087C20.5252 41.5699 18.8153 41.6529 18.4572 39.5622C21.5406 38.4246 24.1381 35.8623 27.9037 36.522C25.5494 36.0148 23.3019 36.1071 21.0651 35.9913C18.2896 35.8477 17.4531 37.2034 17.5596 40.1984C17.4043 41.1357 17.249 42.073 16.7761 43.4976C13.7422 50.9356 13.1789 54.9766 15.4022 56.7096C14.8953 54.9294 15.1118 53.7287 16.1862 52.4748C16.9523 51.5807 16.7717 49.8853 18.3227 49.3907C16.0123 47.6314 17.7371 45.1022 17.6866 42.7195ZM31.8372 51.3175C33.8187 52.878 30.0032 54.9829 32.6104 56.9901C33.292 53.6449 33.891 50.7047 34.5119 47.657C32.1552 47.7918 32.0874 47.8813 31.8372 51.3175Z" fill="#212F3D"/>
<path d="M256.014 59.3713C247.473 74.453 234.681 82.1354 217.743 81.2616C199.882 80.3402 187.217 70.9648 181.333 54.0274C172.893 29.7287 188.229 4.59305 213.222 0.514998C232.732 -2.66836 253.59 9.12129 259.102 29.9246C261.773 40.0096 260.764 49.7407 256.014 59.3713ZM192.686 12.8745C184.045 22.1431 179.719 32.7012 181.255 45.7271C183.305 63.1069 200.831 82.2254 224.892 78.9936C244.016 76.4249 261.934 58.5576 257.95 34.1175C255.539 19.3269 246.433 8.6399 231.948 3.89099C217.577 -0.820719 204.413 2.19467 192.686 12.8745Z" fill="#212F3D"/>
<path d="M235.719 37.1684C235.574 42.2118 235.032 46.8462 233.8 51.449C232.807 55.1569 234.669 58.6647 235.793 62.0902C237.015 65.8115 235.771 67.3794 232.174 68.0034C229.115 68.534 226.126 69.4622 223.076 70.0593C220.034 70.6547 217.642 70.0236 217.377 66.2958C216.956 60.3712 213.962 55.8483 210.358 51.236C205.813 45.4198 202.751 38.6619 204.498 30.8104C206.02 23.9748 212.543 18.0677 219.578 17.0873C225.026 16.328 231.224 20.599 234.716 26.8925C236.563 30.2204 234.849 33.598 235.719 37.1684ZM206.698 36.6662C206.947 42.6853 210.191 47.388 213.453 52.0908C215.719 55.3573 218.457 56.3525 222.072 53.9624C221.415 49.9684 220.841 45.9979 217.81 42.8545C216.801 41.8078 216.115 40.3924 215.487 39.0495C214.714 37.3958 213.259 35.2692 215.632 34.0877C217.695 33.0604 218.584 35.278 219.509 36.7485C220.116 37.7128 220.214 39.1982 221.926 39.1054C223.184 38.2025 223.133 36.7605 223.309 35.4626C223.509 33.9795 223.355 32.0953 225.399 32.1134C227.896 32.1355 227.149 34.3206 227.352 35.8248C227.667 38.1525 227.463 40.4407 226.807 42.6751C226.098 45.0923 226.154 47.5371 226.72 49.9135C226.997 51.0765 226.936 52.9593 228.856 52.9033C230.599 52.8525 231.231 51.5504 231.67 49.9394C233.298 43.9648 233.469 37.8874 233.128 31.778C232.786 25.647 227.445 20.2229 221.368 19.6577C217.814 19.3271 215.945 21.2973 216.441 24.7172C216.613 25.9092 216.713 27.2005 216.44 28.3499C215.877 30.7185 214.003 31.8893 211.775 32.371C210.44 32.6598 208.975 32.6615 209.024 30.2388C211.836 30.9471 213.451 29.3091 214.449 27.1443C215.395 25.095 213.34 24.5167 212.255 23.3221C207.795 26.5647 206.759 31.0565 206.698 36.6662ZM218.548 57.2963C217.196 58.5523 217.345 59.8681 219.244 59.375C223.175 58.354 227.241 57.5136 230.676 54.787C226.81 55.5592 222.944 56.3314 218.548 57.2963Z" fill="#E67E22"/>
<path d="M318.018 108.356C334.548 94.6473 344.618 89.0154 361.547 84.2171C354.459 82.1188 349.349 76.8997 341.867 78.5916C339.594 79.1056 337.686 77.5265 337.004 75.176C336.415 73.1457 337.335 71.4097 339.156 70.6211C341.439 69.6328 344.064 69.5943 345.207 72.2232C346.582 75.3888 349.08 76.6134 352.029 77.4464C359.075 79.4367 365.218 84.8384 373.293 83.0209C374.279 82.799 375.076 83.6886 375.774 84.4643C382.644 92.1036 391.318 95.8505 401.503 96.2232C403.782 96.3065 405.401 97.33 406.074 99.4079C406.778 101.578 405.913 103.469 403.838 104.36C401.875 105.202 399.538 105.092 398.53 103.014C395.472 96.7025 388.918 96.7089 382.742 93.2874C385.169 102.057 384.031 110.135 386.871 117.651C387.862 120.27 389.121 122.527 392.718 121.361C394.428 120.807 396.285 121.58 397.127 123.038C399.554 127.239 403.437 126.428 406.881 125.79C421.669 123.047 434.107 115.404 445.921 106.524C447.658 105.218 447.432 103.433 448.001 101.758C448.97 98.9071 451.335 96.7321 454.407 97.5243C456.939 98.1775 459.462 100.767 458.849 103.374C458.198 106.145 455.695 108.81 452.083 107.489C449.793 106.651 448.723 107.896 447.261 108.951C436.419 116.773 425.204 123.805 412.047 127.282C406.122 128.848 399.802 127.795 394.06 130.539C392.36 131.351 390.173 130.107 389.447 128.361C386.637 121.595 381.577 115.67 382.541 107.461C382.926 104.176 381.722 100.577 380.699 97.289C379.557 93.617 377.778 90.53 372.746 92.4226C370.255 93.3596 368.223 91.5853 367.048 89.3993C365.658 86.8133 363.789 86.7056 361.186 87.2921C344.207 91.117 330.543 100.619 318.077 112.199C315.762 114.35 313.604 116.675 311.445 118.985C310.424 120.078 309.452 121.257 310.301 122.977C312.485 127.405 308.599 129.462 306.127 130.606C302.815 132.14 300.69 128.533 299.43 126.111C297.893 123.158 300.825 119.999 302.754 119.87C310.089 119.381 312.201 112.642 316.991 109.238C317.261 109.046 317.494 108.802 318.018 108.356ZM305.85 122.699C303.778 121.707 302.682 122.924 302.174 124.617C301.792 125.892 303.008 126.622 303.913 127.316C304.835 128.022 305.777 127.898 306.576 127.146C308.091 125.719 307.981 124.312 305.85 122.699ZM451.039 102.112C451.583 104.071 452.415 105.746 454.816 104.378C456.006 103.7 456.045 102.418 455.218 101.33C453.813 99.4801 452.454 99.8746 451.039 102.112ZM391.97 124.799C391.088 126.518 391.652 127.663 393.491 127.915C394.801 128.094 395.736 127.205 395.557 125.888C395.307 124.044 394.114 123.537 391.97 124.799Z" fill="#D35400"/>
<path d="M122.477 17.7181C123.58 17.2694 125.007 17.1677 125.08 16.7989C126.233 10.9525 132.092 12.5624 135.412 10.2049C136.97 9.09871 147.035 12.7469 147.716 14.569C148.095 15.5833 148.539 16.5399 149.528 16.7672C152.612 17.4765 153.794 19.041 152.553 22.1698C152.162 23.1555 152.633 24.1925 153.499 24.8254C155.869 26.5589 155.761 28.2586 153.612 30.0818C152.654 30.8951 152.251 31.9106 152.73 33.1993C153.71 35.8303 152.663 37.3438 150.02 37.9204C148.573 38.236 147.701 39.0139 147.508 40.5934C147.178 43.297 145.559 43.8306 143.239 42.8555C142.41 42.5068 141.462 42.3077 140.909 42.9865C138.483 45.9675 136.218 46.3705 133.731 43.028C133.06 42.1265 131.982 42.5615 130.998 43.0272C129.024 43.9616 127.613 42.8056 127.081 41.1591C126.459 39.2333 125.783 37.8268 123.536 37.6241C122.982 37.5742 122.022 36.8872 122.034 36.5173C122.139 33.121 119.252 29.1963 120.186 27.1936C121.659 24.0369 120.469 20.7211 122.477 17.7181ZM135.73 29.4328C137.852 30.4539 139.363 30.0489 139.618 27.5061C139.757 26.1263 138.763 25.1827 137.464 25.3112C135.295 25.5258 133.968 26.5604 135.73 29.4328Z" fill="#E67E22"/>
<defs>
<clipPath id="clip0_146_7">
<rect width="18" height="18" fill="white" transform="translate(139 139)"/>
</clipPath>
<clipPath id="clip1_146_7">
<rect width="17" height="17" fill="white" transform="translate(58 206)"/>
</clipPath>
<clipPath id="clip2_146_7">
<rect width="20" height="20" fill="white" transform="matrix(1 0 0 -1 139 216)"/>
</clipPath>
<clipPath id="clip3_146_7">
<rect width="20" height="30" fill="white" transform="translate(97 158)"/>
</clipPath>
</defs>
</svg>
